<svg width="142" height="65" viewBox="0 0 142 65" fill="none" xmlns="http://www.w3.org/2000/svg">
<g clip-path="url(#clip0_211_520)">
<path d="M30.0991 45.2048L28.8369 47.9636H31.2642C31.3128 47.9636 30.0991 45.2048 30.0991 45.2048ZM27.0406 49.6575L30.0505 42.8333H30.4875L34.1285 50.5287C34.4198 51.1579 34.7596 51.5451 35.148 51.9807H32.5264C32.6235 51.7871 32.7206 51.5935 32.7206 51.3031C32.7206 51.0611 32.575 50.6739 32.4293 50.2867L31.8468 48.9799H28.497L27.9145 50.2383C27.6232 50.8675 27.4775 51.1579 27.4775 51.3515C27.4775 51.5451 27.5261 51.7387 27.6232 51.9323H25.7299C26.0697 51.6419 26.361 51.2547 27.0406 49.6575Z" fill="white"/>
<path d="M38.6434 42.8816H41.0708C41.265 43.3172 41.6533 43.8012 41.9932 44.1884L45.9255 48.8831V44.5756C45.9255 43.7044 45.9255 43.5108 45.6342 42.8816H47.3333C47.0421 43.414 47.0421 43.656 47.0421 44.5756V51.9806H46.5081L40.2455 44.5756V50.0447C40.2455 51.1094 40.3426 51.303 40.6339 51.9806H38.7405C39.0318 51.4966 39.1289 51.1094 39.1289 49.9963V44.866C39.1289 43.6076 38.9833 43.3656 38.6434 42.8816Z" fill="white"/>
<path d="M59.2273 42.93V44.7208C58.9846 44.4304 58.0137 43.656 56.5573 43.656C54.227 43.656 53.1104 45.35 53.1104 47.3828C53.1104 49.4639 54.227 51.2547 56.7029 51.2547C57.9166 51.2547 58.7904 50.7223 59.373 50.2867L58.9361 51.9807C58.2078 52.1259 57.4311 52.2711 56.7029 52.2711C53.159 52.2711 51.2656 50.0931 51.2656 47.3828C51.2656 44.5756 53.4502 42.5428 56.6543 42.5428C57.5767 42.5428 58.4506 42.6396 59.2273 42.93Z" fill="white"/>
<path d="M63.4024 42.8816H65.6356C65.4414 43.414 65.3443 43.6076 65.3443 44.4788V46.5599H69.9077V44.4788C69.9077 43.7044 69.9077 43.414 69.5679 42.8816H71.8496C71.6069 43.414 71.5098 43.8012 71.5098 44.4788V50.1899C71.5098 51.4482 71.5098 51.3514 71.8496 51.9806H69.5194C69.7621 51.4482 69.9077 51.303 69.9077 50.1899V47.6731H65.3443V50.1899C65.3443 51.2546 65.3929 51.4482 65.7327 51.9806H63.3539C63.6452 51.4482 63.6937 51.1578 63.6937 50.1899V44.4788C63.7423 43.656 63.6937 43.414 63.4024 42.8816Z" fill="white"/>
<path d="M81.0735 43.656C78.9374 43.656 77.8209 45.1564 77.8209 47.3828C77.8209 49.1251 78.6462 51.2063 81.0735 51.2063C83.2581 51.2063 84.3262 49.6091 84.3262 47.3828C84.2776 45.35 83.2581 43.656 81.0735 43.656ZM75.9761 47.3828C75.9761 44.9144 78.015 42.5428 81.0735 42.5428C83.8892 42.5428 86.1224 44.624 86.1224 47.3828C86.1224 50.4803 83.598 52.2711 81.0735 52.2711C78.3549 52.2711 75.9761 50.2867 75.9761 47.3828Z" fill="white"/>
<path d="M92.4335 43.8012C92.3364 43.8012 92.1908 43.8012 92.0937 43.8012V46.9471C92.1422 46.9471 92.1908 46.9471 92.2393 46.9471C93.2588 46.9471 94.7152 46.6567 94.7152 45.2048C94.7638 43.8496 93.5501 43.8012 92.4335 43.8012ZM90.1518 51.9806C90.3945 51.4482 90.4431 51.2062 90.4431 49.8995V45.1079C90.4431 43.8496 90.3945 43.5108 90.0547 42.8816H92.5306C94.1812 42.8816 96.4143 42.9784 96.4143 45.2531C96.4143 46.7535 95.1521 47.3343 94.1812 47.5763L96.026 50.1899C96.6085 51.061 96.9969 51.4482 97.628 51.9806H96.56C95.3949 51.9806 95.3463 51.9322 94.7152 50.9642L92.2393 47.2859H92.1422V49.9963C92.1422 51.0126 92.2393 51.3514 92.5306 51.9322H90.1518V51.9806Z" fill="white"/>
<path d="M100.929 42.8816H103.259C102.92 43.6076 102.871 43.8496 102.871 44.7208V50.1415C102.871 51.1578 102.92 51.2546 103.259 51.9806H100.929C101.269 51.2546 101.318 51.1578 101.318 50.1415V44.7208C101.269 43.9464 101.269 43.3656 100.929 42.8816Z" fill="white"/>
<path d="M111.27 45.2048L110.007 47.9636H112.435L111.27 45.2048ZM108.163 49.6575L111.173 42.8333H111.61L115.251 50.5287C115.542 51.1579 115.882 51.5451 116.27 51.9807H113.6C113.697 51.7871 113.794 51.5935 113.794 51.3031C113.794 51.0611 113.649 50.6739 113.503 50.2867L112.92 48.9799H109.571L108.988 50.2383C108.697 50.8675 108.551 51.1579 108.551 51.3515C108.551 51.5451 108.6 51.7387 108.697 51.9323H106.852C107.192 51.6419 107.483 51.2547 108.163 49.6575Z" fill="white"/>
<path d="M3.44684 59.4341L2.4759 61.6121H4.41778L3.44684 59.4341ZM1.01949 62.9189L3.39829 57.595H3.73812L6.60239 63.6449C6.84513 64.1288 7.08786 64.4676 7.37915 64.8064H5.29162C5.38872 64.6612 5.43726 64.4676 5.43726 64.274C5.43726 64.0805 5.29162 63.7417 5.19453 63.4513L4.70906 62.4349H2.08752L1.60205 63.4513C1.40786 63.9353 1.26222 64.1772 1.26222 64.3224C1.26222 64.4676 1.31077 64.6612 1.35932 64.8064H0C0.291282 64.4676 0.48547 64.1772 1.01949 62.9189Z" fill="white"/>
<path d="M10.0492 62.9672C10.2919 63.2092 11.2629 64.0804 12.3309 64.0804C13.2047 64.0804 13.7388 63.4996 13.7388 62.9188C13.7388 62.2896 13.2533 61.9992 12.6222 61.8056L12.0882 61.612C11.1172 61.2732 10.1948 60.7408 10.1948 59.5309C10.1948 58.3693 11.1172 57.3529 12.7678 57.3529C13.5931 57.3529 14.1757 57.5465 14.5641 57.6917V59.0953C14.1271 58.7081 13.6902 58.2725 12.8164 58.2725C12.0396 58.2725 11.5542 58.7081 11.5542 59.2889C11.5542 60.0149 12.0396 60.1601 12.7678 60.4504L13.496 60.7408C14.1271 60.9828 15.0981 61.3216 15.0981 62.6284C15.0981 63.9836 14.03 65.0484 12.428 65.0484C11.5056 65.0484 10.5347 64.758 10.2919 64.6128L10.0492 62.9672Z" fill="white"/>
<path d="M18.011 62.9672C18.2537 63.2092 19.2247 64.0804 20.2927 64.0804C21.1665 64.0804 21.7006 63.4996 21.7006 62.9188C21.7006 62.2896 21.2151 61.9992 20.584 61.8056L20.05 61.612C19.079 61.2732 18.1566 60.7408 18.1566 59.5309C18.1566 58.3693 19.079 57.3529 20.7296 57.3529C21.5549 57.3529 22.1375 57.5465 22.5259 57.6917V59.0953C22.0889 58.7081 21.652 58.2725 20.7782 58.2725C20.0014 58.2725 19.5159 58.7081 19.5159 59.2889C19.5159 60.0149 20.0014 60.1601 20.7296 60.4504L21.4578 60.7408C22.0889 60.9828 23.0599 61.3216 23.0599 62.6284C23.0599 63.9836 21.9918 65.0484 20.3898 65.0484C19.4674 65.0484 18.4965 64.758 18.2537 64.6128L18.011 62.9672Z" fill="white"/>
<path d="M26.1668 57.595H30.5846L30.7303 58.8049C30.1962 58.4662 29.8564 58.4178 28.934 58.4178H27.7203V60.5473H28.6427C29.2738 60.5473 29.6622 60.5473 30.0506 60.3053V61.6121C29.6622 61.4669 29.2738 61.3217 28.6913 61.3217H27.7203V63.8869H28.934C30.1962 63.8869 30.439 63.7901 31.1672 63.4029L30.7303 64.758H26.1183C26.3125 64.3708 26.4096 64.032 26.4096 62.8705V59.2405C26.4581 58.5146 26.4581 57.9822 26.1668 57.595Z" fill="white"/>
<path d="M33.9343 58.8533L34.3227 57.595H39.7114L39.323 58.8049C38.9347 58.5146 38.5463 58.4178 38.1094 58.4178H37.3812V63.0157C37.3812 63.7901 37.3812 64.1289 37.5754 64.758H35.8277C36.0704 64.1772 36.1189 63.8869 36.1189 62.9673V58.4178H35.5364C34.7111 58.4178 34.5654 58.4662 33.9343 58.8533Z" fill="white"/>
<path d="M47.0906 64.758C47.3333 64.4192 47.3819 64.1289 47.479 63.5481L48.1586 58.8049C48.1586 58.6114 48.2072 58.4178 48.2072 58.2726C48.2072 57.9338 48.1101 57.7886 48.013 57.595H49.9549C49.9549 57.9338 50.0034 58.1758 50.1976 58.6114L51.7996 62.4833L53.4017 58.6597C53.5959 58.1758 53.6444 57.9338 53.693 57.6434H55.5863C55.4892 57.7886 55.3921 57.9822 55.3921 58.2242C55.3921 58.4662 55.3921 58.7081 55.4407 58.9017L56.0718 63.5965C56.1203 64.1288 56.266 64.3708 56.4116 64.8064H54.5668C54.7125 64.516 54.8096 64.2257 54.8096 63.9353C54.8096 63.7901 54.8096 63.6449 54.761 63.4997L54.1784 58.8533L51.654 64.8064H51.4598L49.0325 58.9017L48.3528 63.3545C48.3043 63.5965 48.3043 63.8385 48.3043 64.0321C48.3043 64.3224 48.3528 64.5644 48.4984 64.8064L47.0906 64.758Z" fill="white"/>
<path d="M62.2372 59.4341L61.2663 61.612H63.2081L62.2372 59.4341ZM59.8099 62.9188L62.1887 57.5465H62.5285L65.3928 63.5964C65.6355 64.0804 65.8782 64.4192 66.1695 64.758H64.082C64.1791 64.6128 64.2276 64.4192 64.2276 64.2256C64.2276 64.032 64.082 63.6932 63.9849 63.4028L63.4994 62.3864H60.8779L60.3924 63.4028C60.1982 63.8868 60.0526 64.1288 60.0526 64.274C60.0526 64.4192 60.1011 64.6128 60.1497 64.758H58.7418C59.0331 64.4676 59.2758 64.1772 59.8099 62.9188Z" fill="white"/>
<path d="M68.9368 57.5949H70.8301C70.9757 57.9337 71.3156 58.3209 71.5583 58.6113L74.6653 62.2896V58.9017C74.6653 58.2241 74.6653 58.0789 74.4226 57.5465H75.7819C75.5877 57.9821 75.5392 58.1757 75.5392 58.9017V64.7096H75.1022L70.199 58.8533V63.1608C70.199 63.9836 70.2475 64.1772 70.5388 64.7096H69.0339C69.2766 64.3224 69.3251 64.032 69.3251 63.1608V59.1437C69.3251 58.1757 69.1795 57.9821 68.9368 57.5949Z" fill="white"/>
<path d="M82.093 59.4341L81.122 61.6121H83.0639L82.093 59.4341ZM79.6656 62.9189L82.0444 57.595H82.3842L85.2485 63.6449C85.4912 64.1288 85.734 64.4676 86.0253 64.8064H83.9377C84.0348 64.6612 84.0834 64.4676 84.0834 64.274C84.0834 64.0805 83.9377 63.7417 83.8406 63.4513L83.3552 62.4349H80.7336L80.2482 63.4513C80.054 63.9353 79.9083 64.1772 79.9083 64.3224C79.9083 64.4676 79.9569 64.6612 80.0054 64.8064H78.6461C78.8889 64.4676 79.1316 64.1772 79.6656 62.9189Z" fill="white"/>
<path d="M94.3268 57.6434L94.521 59.2405C94.1812 58.9017 93.4044 58.1757 92.2393 58.1757C90.2488 58.1757 89.6663 59.8697 89.6663 61.2249C89.6663 62.9189 90.5401 64.1772 92.5791 64.1772C93.016 64.1772 93.453 64.1288 93.8413 63.8868V62.6285C93.8413 61.8057 93.7928 61.5153 93.5015 61.0797H95.3948C95.2006 61.4185 95.1035 61.6605 95.1035 62.4833V64.516C94.3268 64.7096 93.5986 64.9516 92.7733 64.9516C90.0061 64.9516 88.2584 63.4997 88.2584 61.1765C88.2584 58.5145 90.2974 57.3046 92.3364 57.3046C93.1617 57.353 93.9384 57.5466 94.3268 57.6434Z" fill="white"/>
<path d="M98.5504 57.595H102.968L103.114 58.8049C102.58 58.4662 102.24 58.4178 101.318 58.4178H100.104V60.5473H101.026C101.657 60.5473 102.046 60.5473 102.434 60.3053V61.6121C102.046 61.4669 101.657 61.3217 101.075 61.3217H100.104V63.8869H101.318C102.58 63.8869 102.823 63.7901 103.551 63.4029L103.114 64.758H98.5504C98.7446 64.3708 98.8417 64.032 98.8417 62.8705V59.2405C98.8417 58.5146 98.8417 57.9822 98.5504 57.595Z" fill="white"/>
<path d="M106.269 64.758C106.512 64.4192 106.561 64.1289 106.658 63.5481L107.337 58.8049C107.337 58.6114 107.386 58.4178 107.386 58.2726C107.386 57.9338 107.289 57.7886 107.192 57.595H109.134C109.134 57.9338 109.182 58.1758 109.376 58.6114L110.978 62.4833L112.581 58.6597C112.775 58.1758 112.823 57.9338 112.872 57.6434H114.765C114.668 57.7886 114.571 57.9822 114.571 58.2242C114.571 58.4662 114.571 58.7081 114.62 58.9017L115.202 63.5965C115.251 64.1288 115.396 64.3708 115.542 64.8064H113.697C113.843 64.516 113.94 64.2257 113.94 63.9353C113.94 63.7901 113.94 63.6449 113.891 63.4997L113.309 58.8533L110.784 64.8064H110.542L108.114 58.9017L107.435 63.3545C107.386 63.5965 107.386 63.8385 107.386 64.0321C107.386 64.3224 107.435 64.5644 107.58 64.8064L106.269 64.758Z" fill="white"/>
<path d="M118.406 57.595H122.824L122.97 58.8049C122.436 58.4662 122.096 58.4178 121.173 58.4178H119.96V60.5473H120.882C121.513 60.5473 121.902 60.5473 122.29 60.3053V61.6121C121.902 61.4669 121.513 61.3217 120.931 61.3217H119.96V63.8869H121.173C122.436 63.8869 122.678 63.7901 123.407 63.4029L122.97 64.758H118.358C118.552 64.3708 118.649 64.032 118.649 62.8705V59.2405C118.697 58.5146 118.697 57.9822 118.406 57.595Z" fill="white"/>
<path d="M126.368 57.5949H128.261C128.407 57.9337 128.747 58.3209 128.989 58.6113L132.096 62.2896V58.9017C132.096 58.2241 132.096 58.0789 131.854 57.5465H133.213C133.019 57.9821 132.97 58.1757 132.97 58.9017V64.7096H132.533L127.63 58.8533V63.1608C127.63 63.9836 127.679 64.1772 127.97 64.7096H126.465C126.708 64.3224 126.756 64.032 126.756 63.1608V59.1437C126.805 58.1757 126.659 57.9821 126.368 57.5949Z" fill="white"/>
<path d="M136.174 58.8533L136.563 57.595H141.951L141.563 58.8049C141.175 58.5146 140.786 58.4178 140.349 58.4178H139.621V63.0157C139.621 63.7901 139.621 64.1289 139.815 64.758H138.068C138.31 64.1772 138.359 63.8869 138.359 62.9673V58.4178H137.728C136.951 58.4178 136.805 58.4662 136.174 58.8533Z" fill="white"/>
<path d="M82.2386 18.2949L76.6072 8.71184L61.8975 33.7342H56.7515L68.4027 13.9389L65.3928 8.71184C64.0821 10.9382 50.6831 33.7342 50.6831 33.7342H45.5371C47.6732 30.1042 65.3928 0 65.3928 0L71.0243 9.58302L76.6072 0C78.8404 3.82353 84.8116 13.9389 84.8116 13.9389L82.2386 18.2949Z" fill="#DDA654"/>
<path d="M82.2386 28.7007L87.87 19.1177L96.4629 33.7342H91.3169L87.87 27.8295L84.4232 33.7342H80.1025L76.6557 27.8295L73.2089 33.7342H68.0629L76.6557 19.1177L82.2386 28.7007Z" fill="#DDA654"/>
</g>
<g clip-path="url(#clip1_211_520)">
<path d="M30.1115 45.2024L28.854 47.9839H31.3033L30.1115 45.2024ZM27.0333 49.6817L30.0458 42.8647H30.5044L34.1329 50.5435C34.421 51.1706 34.7485 51.5752 35.1283 51.9931H32.4826C32.6004 51.7972 32.6658 51.5884 32.6658 51.3271C32.6658 51.079 32.5088 50.6742 32.3514 50.3085L31.749 48.9894H28.4087L27.8192 50.2562C27.5441 50.883 27.3999 51.1704 27.3999 51.3924C27.3999 51.5884 27.4524 51.7972 27.5441 51.9929H25.7233C26.0638 51.6405 26.3522 51.2487 27.0333 49.6814V49.6817Z" fill="#4B4B4D"/>
<path d="M38.628 42.8647H41.0514C41.2349 43.2827 41.6407 43.7656 41.9681 44.1703L45.8978 48.8588V44.5623C45.8978 43.6742 45.8846 43.4913 45.5835 42.8645H47.2994C47.0241 43.3999 46.998 43.6349 46.998 44.5752V51.9929H46.461L40.2388 44.5622V50.034C40.2388 51.0787 40.3175 51.3005 40.645 51.9929H38.7586C39.047 51.4965 39.1517 51.1048 39.1517 49.9949V44.8494C39.1517 43.6346 38.9945 43.3735 38.6277 42.8644L38.628 42.8647Z" fill="#4B4B4D"/>
<path d="M59.2479 42.9429V44.7324C58.999 44.4449 58.0558 43.6483 56.6018 43.6483C54.2702 43.6483 53.17 45.3591 53.17 47.3962C53.17 49.4859 54.3095 51.2618 56.7852 51.2618C58.0165 51.2618 58.8547 50.7133 59.4445 50.3085L59.0252 52.0063C58.3177 52.1631 57.532 52.2938 56.8112 52.2938C53.2484 52.2938 51.3884 50.1127 51.3884 47.4227C51.3884 44.6147 53.5761 42.5646 56.7588 42.5646C57.5972 42.5646 58.475 42.6692 59.2479 42.9431V42.9429Z" fill="#4B4B4D"/>
<path d="M63.415 42.8646H65.6287C65.419 43.4 65.3538 43.6088 65.3538 44.4839V46.5864H69.9119V44.4839C69.9119 43.7133 69.8989 43.4128 69.5714 42.8646H71.8506C71.602 43.3868 71.5233 43.8048 71.5233 44.4839V50.2039C71.5233 51.4836 71.5362 51.3664 71.8638 51.9931H69.5322C69.7943 51.4447 69.9119 51.3009 69.9119 50.2039V47.6836H65.3538V50.2039C65.3538 51.2748 65.393 51.4578 65.7335 51.9931H63.3754C63.69 51.4447 63.7295 51.1574 63.7295 50.2039V44.4839C63.7295 43.6742 63.677 43.4391 63.4149 42.8646H63.415Z" fill="#4B4B4D"/>
<path d="M81.0613 43.6743C78.9394 43.6743 77.7867 45.1893 77.7867 47.3831C77.7867 49.1461 78.625 51.2096 81.0613 51.2096C83.2228 51.2096 84.2971 49.6031 84.2971 47.3831C84.2971 45.3327 83.262 43.6743 81.0613 43.6743V43.6743ZM75.9788 47.3831C75.9788 44.9148 77.9966 42.5641 81.0613 42.5641C83.8909 42.5641 86.1043 44.6665 86.1043 47.3831C86.1043 50.465 83.5631 52.2934 81.0613 52.2934C78.3631 52.2934 75.9788 50.3085 75.9788 47.3831Z" fill="#4B4B4D"/>
<path d="M92.4469 43.8048C92.3288 43.8048 92.2239 43.818 92.1191 43.818V46.9652C92.1716 46.9784 92.2109 46.9784 92.2634 46.9784C93.259 46.9784 94.7522 46.6908 94.7522 45.2284C94.7522 43.8443 93.5472 43.805 92.4469 43.805V43.8048ZM90.1805 51.9932C90.4295 51.4578 90.4819 51.2358 90.4819 49.9036V45.098C90.4819 43.831 90.4295 43.4914 90.0889 42.8646H92.5514C94.1888 42.8646 96.4419 42.956 96.4419 45.2544C96.4419 46.7693 95.1581 47.3178 94.2279 47.5788L96.049 50.2041C96.6513 51.0918 97.0317 51.4709 97.6337 51.9932H96.5467C95.3939 51.9932 95.3416 51.9409 94.7126 51.0004L92.2238 47.3307H92.119V50.0341C92.119 51.0658 92.2238 51.4055 92.4986 51.9932H90.1803H90.1805Z" fill="#4B4B4D"/>
<path d="M100.924 42.8646H103.255C102.915 43.5959 102.875 43.8179 102.875 44.706V50.1387C102.875 51.1311 102.928 51.2488 103.255 51.993H100.924C101.251 51.2746 101.303 51.1832 101.303 50.1387V44.706C101.303 43.9485 101.264 43.3477 100.924 42.8646Z" fill="#4B4B4D"/>
<path d="M111.26 45.2024L110.002 47.9839H112.452L111.26 45.2024ZM108.181 49.6817L111.194 42.8647H111.653L115.281 50.5435C115.57 51.1706 115.897 51.5752 116.277 51.9931H113.631C113.749 51.7972 113.814 51.5884 113.814 51.3271C113.814 51.079 113.657 50.6742 113.5 50.3085L112.897 48.9894H109.557L108.967 50.2562C108.693 50.883 108.548 51.1704 108.548 51.3924C108.548 51.5884 108.601 51.7972 108.693 51.9929H106.871C107.212 51.6405 107.501 51.2487 108.181 49.6814V49.6817Z" fill="#4B4B4D"/>
<path d="M3.44671 59.43L2.45892 61.615H4.38286L3.44671 59.43V59.43ZM1.02894 62.9483L3.39521 57.5939H3.7554L6.60514 63.6253C6.83155 64.1177 7.08889 64.4358 7.38695 64.764H5.30894C5.40157 64.61 5.45307 64.4458 5.45307 64.2409C5.45307 64.0458 5.32951 63.728 5.20609 63.4408L4.73283 62.4046H2.10937L1.64647 63.3998C1.43013 63.892 1.31707 64.1177 1.31707 64.2922C1.31707 64.4459 1.35821 64.6101 1.42999 64.764H-0.00012207C0.267568 64.4867 0.49384 64.1791 1.02894 62.9483V62.9483Z" fill="#4B4B4D"/>
<path d="M10.049 62.9996C10.2856 63.2458 11.2732 64.0972 12.3329 64.0972C13.228 64.0972 13.7423 63.5124 13.7423 62.9482C13.7423 62.3328 13.2487 62.0457 12.6311 61.8199L12.0858 61.6149C11.1085 61.2558 10.1931 60.7532 10.1931 59.5222C10.1931 58.3529 11.1396 57.3582 12.7751 57.3582C13.5982 57.3582 14.1952 57.5631 14.586 57.6965V59.0813C14.1438 58.6915 13.7114 58.2403 12.8371 58.2403C12.0757 58.2403 11.5921 58.6915 11.5921 59.2351C11.5921 59.9532 12.0963 60.1274 12.8062 60.4046L13.5262 60.6918C14.1332 60.9277 15.1108 61.2559 15.1108 62.5894C15.1108 63.9231 14.0512 65.0001 12.4358 65.0001C11.5099 65.0001 10.5426 64.6922 10.3164 64.5589L10.049 62.9997V62.9996Z" fill="#4B4B4D"/>
<path d="M17.9893 62.9996C18.2259 63.2458 19.2135 64.0972 20.2731 64.0972C21.1683 64.0972 21.6827 63.5124 21.6827 62.9482C21.6827 62.3328 21.189 62.0457 20.5713 61.8199L20.0261 61.6149C19.0487 61.2558 18.1332 60.7532 18.1332 59.5222C18.1332 58.3529 19.0799 57.3582 20.7157 57.3582C21.5385 57.3582 22.1355 57.5631 22.5263 57.6965V59.0813C22.084 58.6915 21.6516 58.2403 20.7774 58.2403C20.016 58.2403 19.5323 58.6915 19.5323 59.2351C19.5323 59.9532 20.0365 60.1274 20.7464 60.4046L21.4665 60.6918C22.0736 60.9277 23.0509 61.2559 23.0509 62.5894C23.0509 63.9231 21.9915 65.0001 20.376 65.0001C19.4502 65.0001 18.4829 64.6922 18.2567 64.5589L17.9893 62.9997V62.9996Z" fill="#4B4B4D"/>
<path d="M26.1661 57.594H30.5901L30.7235 58.8146C30.1887 58.4967 29.8391 58.4251 28.9129 58.4251H27.7093V60.5378H28.6251C29.2525 60.5378 29.6538 60.5277 30.0345 60.3122V61.625C29.6435 61.4713 29.2731 61.3584 28.6662 61.3584H27.7093V63.9126H28.9333C30.1989 63.9126 30.4564 63.7995 31.1867 63.4305L30.7441 64.7638H26.1555C26.3614 64.3843 26.4642 64.046 26.4642 62.8866V59.2454C26.4642 58.5172 26.454 57.9835 26.166 57.5938L26.1661 57.594Z" fill="#4B4B4D"/>
<path d="M33.921 58.8659L34.3324 57.594H39.7337L39.343 58.8249C38.9417 58.5173 38.5711 58.4251 38.1494 58.4251H37.4291V63.0099C37.4291 63.7792 37.4499 64.1177 37.6453 64.7637H35.8756C36.1124 64.1689 36.1739 63.8716 36.1739 62.9892V58.4249H35.5671C34.6925 58.4249 34.5483 58.4658 33.921 58.8658V58.8659Z" fill="#4B4B4D"/>
<path d="M47.1167 64.764C47.3533 64.4154 47.4255 64.1278 47.4973 63.5636L48.1766 58.8147C48.197 58.6197 48.2483 58.4352 48.2483 58.2812C48.2483 57.9429 48.1454 57.7887 48.0527 57.5941H50.0077C50.0077 57.9121 50.0693 58.1683 50.234 58.589L51.8287 62.4663L53.4441 58.6301C53.6496 58.1273 53.6908 57.9121 53.7526 57.5941H55.6665C55.553 57.717 55.4503 57.9429 55.4503 58.189C55.4503 58.425 55.471 58.6508 55.5018 58.8761L56.1088 63.5636C56.1707 64.0971 56.3042 64.3434 56.4687 64.764H54.6374C54.761 64.4871 54.864 64.1895 54.864 63.8819C54.864 63.7382 54.8433 63.6047 54.833 63.4511L54.2568 58.7945L51.7258 64.764H51.4793L49.0306 58.8761L48.372 63.3074C48.3411 63.5536 48.3101 63.7793 48.3101 63.9947C48.3101 64.2611 48.3821 64.5176 48.5058 64.764H47.1167V64.764Z" fill="#4B4B4D"/>
<path d="M62.2371 59.43L61.2493 61.615H63.1733L62.2371 59.43V59.43ZM59.8193 62.9483L62.1856 57.5939H62.5458L65.3957 63.6253C65.622 64.1177 65.8793 64.4358 66.1775 64.764H64.0993C64.192 64.61 64.2435 64.4458 64.2435 64.2409C64.2435 64.0458 64.1199 63.728 63.9965 63.4408L63.5232 62.4046H60.8998L60.4369 63.3998C60.2207 63.892 60.1075 64.1177 60.1075 64.2922C60.1075 64.4459 60.1486 64.6101 60.2205 64.764H58.7903C59.058 64.4867 59.2842 64.1791 59.8193 62.9483Z" fill="#4B4B4D"/>
<path d="M68.9214 57.594H70.8249C70.9686 57.9224 71.2879 58.3017 71.5451 58.6198L74.6314 62.3024V58.9276C74.6314 58.2302 74.6211 58.0865 74.3849 57.594H75.7324C75.5166 58.0145 75.4959 58.1992 75.4959 58.9381V64.7639H75.074L70.1869 58.9276V63.2254C70.1869 64.0461 70.2488 64.2205 70.5058 64.7639H69.0244C69.2506 64.3744 69.3329 64.0665 69.3329 63.1947V59.1532C69.3329 58.1992 69.2096 57.9941 68.9214 57.5939V57.594Z" fill="#4B4B4D"/>
<path d="M82.0876 59.43L81.0996 61.615H83.0239L82.0876 59.43ZM79.6697 62.9483L82.0359 57.5939H82.3961L85.2459 63.6253C85.4725 64.1177 85.7293 64.4358 86.0279 64.764H83.9494C84.042 64.61 84.0938 64.4458 84.0938 64.2409C84.0938 64.0458 83.9704 63.728 83.8465 63.4408L83.3735 62.4046H80.7498L80.2869 63.3998C80.0708 63.892 79.9578 64.1177 79.9578 64.2922C79.9578 64.4459 79.9986 64.6101 80.0707 64.764H78.6409C78.9083 64.4867 79.1346 64.1791 79.6697 62.9483Z" fill="#4B4B4D"/>
<path d="M94.3279 57.6452L94.513 59.2557C94.1528 58.9172 93.3916 58.1992 92.2191 58.1992C90.223 58.1992 89.6471 59.9019 89.6471 61.2251C89.6471 62.9177 90.5316 64.169 92.5482 64.169C92.9701 64.169 93.4331 64.1072 93.7933 63.9024V62.6509C93.7933 61.8405 93.7621 61.5226 93.4638 61.1021H95.3772C95.1614 61.4403 95.0689 61.7072 95.0689 62.5174V64.5691C94.3076 64.7844 93.5666 64.9998 92.7542 64.9998C89.9657 64.9998 88.2377 63.5534 88.2377 61.2455C88.2377 58.589 90.2947 57.3579 92.3013 57.3579C93.1654 57.3579 93.9472 57.5426 94.3279 57.6453V57.6452Z" fill="#4B4B4D"/>
<path d="M98.5638 57.594H102.988L103.121 58.8146C102.587 58.4967 102.237 58.4251 101.311 58.4251H100.107V60.5378H101.023C101.65 60.5378 102.052 60.5277 102.432 60.3122V61.625C102.041 61.4713 101.671 61.3584 101.064 61.3584H100.107V63.9126H101.331C102.597 63.9126 102.854 63.7995 103.584 63.4305L103.142 64.7638H98.5533C98.7592 64.3843 98.8619 64.046 98.8619 62.8866V59.2454C98.8619 58.5172 98.8518 57.9835 98.5637 57.5938L98.5638 57.594Z" fill="#4B4B4D"/>
<path d="M106.288 64.764C106.524 64.4154 106.596 64.1278 106.668 63.5636L107.347 58.8147C107.368 58.6197 107.419 58.4352 107.419 58.2812C107.419 57.9429 107.316 57.7887 107.223 57.5941H109.178C109.178 57.9121 109.24 58.1683 109.405 58.589L111 62.4663L112.615 58.6301C112.821 58.1273 112.862 57.9121 112.923 57.5941H114.837C114.724 57.717 114.621 57.9429 114.621 58.189C114.621 58.425 114.642 58.6508 114.673 58.8761L115.28 63.5636C115.341 64.0971 115.475 64.3434 115.64 64.764H113.808C113.932 64.4871 114.035 64.1895 114.035 63.8819C114.035 63.7382 114.014 63.6047 114.004 63.4511L113.428 58.7945L110.897 64.764H110.65L108.201 58.8761L107.543 63.3074C107.512 63.5536 107.481 63.7793 107.481 63.9947C107.481 64.2611 107.553 64.5176 107.676 64.764H106.288V64.764Z" fill="#4B4B4D"/>
<path d="M118.414 57.594H122.838L122.972 58.8146C122.437 58.4967 122.087 58.4251 121.161 58.4251H119.957V60.5378H120.873C121.501 60.5378 121.902 60.5277 122.283 60.3122V61.625C121.892 61.4713 121.521 61.3584 120.914 61.3584H119.957V63.9126H121.182C122.447 63.9126 122.704 63.7995 123.435 63.4305L122.992 64.7638H118.404C118.61 64.3843 118.712 64.046 118.712 62.8866V59.2454C118.712 58.5172 118.702 57.9835 118.414 57.5938L118.414 57.594Z" fill="#4B4B4D"/>
<path d="M126.385 57.594H128.288C128.433 57.9224 128.751 58.3017 129.009 58.6198L132.095 62.3024V58.9276C132.095 58.2302 132.085 58.0865 131.848 57.594H133.196C132.98 58.0145 132.959 58.1992 132.959 58.9381V64.7639H132.538L127.651 58.9276V63.2254C127.651 64.0461 127.712 64.2205 127.97 64.7639H126.488C126.715 64.3744 126.797 64.0665 126.797 63.1947V59.1532C126.797 58.1992 126.673 57.9941 126.385 57.5939V57.594Z" fill="#4B4B4D"/>
<path d="M136.187 58.8659L136.599 57.594H142L141.609 58.8249C141.208 58.5173 140.837 58.4251 140.416 58.4251H139.695V63.0099C139.695 63.7792 139.716 64.1177 139.911 64.7637H138.142C138.378 64.1689 138.44 63.8716 138.44 62.9892V58.4249H137.833C136.959 58.4249 136.815 58.4658 136.187 58.8658V58.8659Z" fill="#4B4B4D"/>
<path d="M82.2532 18.3065L76.6268 8.7348L61.9134 33.7541H56.7776C56.7779 33.7538 68.4361 13.9454 68.4361 13.9454L65.3779 8.73563C64.072 10.9566 50.6648 33.7542 50.6648 33.7542H45.5245C47.6712 30.104 65.3776 0.000244141 65.3776 0.000244141L71.0042 9.5671L76.6269 0.000519418C78.8823 3.83734 84.8212 13.9347 84.8212 13.9347L82.2531 18.3066L82.2532 18.3065Z" fill="#DDA654"/>
<path d="M82.2532 28.7009L87.8797 19.1335L96.4757 33.7542H91.3358C91.3297 33.7432 87.8797 27.8685 87.8797 27.8685L84.4197 33.7542H80.0867L76.6268 27.8642L73.167 33.7542H68.0265L76.6268 19.1294L82.2532 28.7009Z" fill="#DDA654"/>
</g>
<defs>
<clipPath id="clip0_211_520">
<rect width="142" height="65" fill="white"/>
</clipPath>
<clipPath id="clip1_211_520">
<rect width="142" height="65" fill="white"/>
</clipPath>
</defs>
</svg>
