<svg width="142" height="65" viewBox="0 0 142 65" fill="none" xmlns="http://www.w3.org/2000/svg">
<g clip-path="url(#clip0_15_354)">
<path d="M30.0991 45.2047L28.8369 47.9635H31.2642C31.3128 47.9635 30.0991 45.2047 30.0991 45.2047ZM27.0406 49.6575L30.0505 42.8332H30.4875L34.1285 50.5286C34.4198 51.1578 34.7596 51.545 35.148 51.9806H32.5264C32.6235 51.787 32.7206 51.5934 32.7206 51.303C32.7206 51.061 32.575 50.6738 32.4293 50.2867L31.8468 48.9799H28.497L27.9145 50.2383C27.6232 50.8674 27.4775 51.1578 27.4775 51.3514C27.4775 51.545 27.5261 51.7386 27.6232 51.9322H25.7299C26.0697 51.6418 26.361 51.2546 27.0406 49.6575Z" fill="white"/>
<path d="M38.6434 42.8816H41.0708C41.265 43.3172 41.6533 43.8012 41.9932 44.1884L45.9255 48.8831V44.5756C45.9255 43.7044 45.9255 43.5108 45.6342 42.8816H47.3333C47.0421 43.414 47.0421 43.656 47.0421 44.5756V51.9806H46.5081L40.2455 44.5756V50.0447C40.2455 51.1094 40.3426 51.303 40.6339 51.9806H38.7405C39.0318 51.4966 39.1289 51.1094 39.1289 49.9963V44.866C39.1289 43.6076 38.9833 43.3656 38.6434 42.8816Z" fill="white"/>
<path d="M59.2273 42.93V44.7208C58.9846 44.4304 58.0137 43.656 56.5573 43.656C54.227 43.656 53.1104 45.35 53.1104 47.3828C53.1104 49.4639 54.227 51.2547 56.7029 51.2547C57.9166 51.2547 58.7904 50.7223 59.373 50.2867L58.9361 51.9807C58.2078 52.1259 57.4311 52.2711 56.7029 52.2711C53.159 52.2711 51.2656 50.0931 51.2656 47.3828C51.2656 44.5756 53.4502 42.5428 56.6543 42.5428C57.5767 42.5428 58.4506 42.6396 59.2273 42.93Z" fill="white"/>
<path d="M63.4024 42.8816H65.6356C65.4414 43.414 65.3443 43.6076 65.3443 44.4788V46.5599H69.9077V44.4788C69.9077 43.7044 69.9077 43.414 69.5679 42.8816H71.8496C71.6069 43.414 71.5098 43.8012 71.5098 44.4788V50.1899C71.5098 51.4482 71.5098 51.3514 71.8496 51.9806H69.5194C69.7621 51.4482 69.9077 51.303 69.9077 50.1899V47.6731H65.3443V50.1899C65.3443 51.2546 65.3929 51.4482 65.7327 51.9806H63.3539C63.6452 51.4482 63.6937 51.1578 63.6937 50.1899V44.4788C63.7423 43.656 63.6937 43.414 63.4024 42.8816Z" fill="white"/>
<path d="M81.0735 43.656C78.9374 43.656 77.8209 45.1564 77.8209 47.3828C77.8209 49.1251 78.6462 51.2063 81.0735 51.2063C83.2581 51.2063 84.3262 49.6091 84.3262 47.3828C84.2776 45.35 83.2581 43.656 81.0735 43.656ZM75.9761 47.3828C75.9761 44.9144 78.015 42.5428 81.0735 42.5428C83.8892 42.5428 86.1224 44.624 86.1224 47.3828C86.1224 50.4803 83.598 52.2711 81.0735 52.2711C78.3549 52.2711 75.9761 50.2867 75.9761 47.3828Z" fill="white"/>
<path d="M92.4335 43.8012C92.3364 43.8012 92.1908 43.8012 92.0937 43.8012V46.9471C92.1422 46.9471 92.1908 46.9471 92.2393 46.9471C93.2588 46.9471 94.7152 46.6567 94.7152 45.2048C94.7638 43.8496 93.5501 43.8012 92.4335 43.8012ZM90.1518 51.9806C90.3945 51.4482 90.4431 51.2062 90.4431 49.8995V45.1079C90.4431 43.8496 90.3945 43.5108 90.0547 42.8816H92.5306C94.1812 42.8816 96.4143 42.9784 96.4143 45.2531C96.4143 46.7535 95.1521 47.3343 94.1812 47.5763L96.026 50.1899C96.6085 51.061 96.9969 51.4482 97.628 51.9806H96.56C95.3949 51.9806 95.3463 51.9322 94.7152 50.9642L92.2393 47.2859H92.1422V49.9963C92.1422 51.0126 92.2393 51.3514 92.5306 51.9322H90.1518V51.9806Z" fill="white"/>
<path d="M100.929 42.8816H103.259C102.92 43.6076 102.871 43.8496 102.871 44.7208V50.1415C102.871 51.1578 102.92 51.2546 103.259 51.9806H100.929C101.269 51.2546 101.318 51.1578 101.318 50.1415V44.7208C101.269 43.9464 101.269 43.3656 100.929 42.8816Z" fill="white"/>
<path d="M111.27 45.2047L110.007 47.9635H112.435L111.27 45.2047ZM108.163 49.6575L111.173 42.8332H111.61L115.251 50.5286C115.542 51.1578 115.882 51.545 116.27 51.9806H113.6C113.697 51.787 113.794 51.5934 113.794 51.303C113.794 51.061 113.649 50.6738 113.503 50.2867L112.92 48.9799H109.571L108.988 50.2383C108.697 50.8674 108.551 51.1578 108.551 51.3514C108.551 51.545 108.6 51.7386 108.697 51.9322H106.852C107.192 51.6418 107.483 51.2546 108.163 49.6575Z" fill="white"/>
<path d="M3.44684 59.4341L2.4759 61.612H4.41778L3.44684 59.4341ZM1.01949 62.9188L3.39829 57.5949H3.73812L6.60239 63.6448C6.84513 64.1288 7.08786 64.4676 7.37915 64.8064H5.29162C5.38872 64.6612 5.43726 64.4676 5.43726 64.274C5.43726 64.0804 5.29162 63.7416 5.19453 63.4512L4.70906 62.4348H2.08752L1.60205 63.4512C1.40786 63.9352 1.26222 64.1772 1.26222 64.3224C1.26222 64.4676 1.31077 64.6612 1.35932 64.8064H0C0.291282 64.4676 0.48547 64.1772 1.01949 62.9188Z" fill="white"/>
<path d="M10.0492 62.9673C10.2919 63.2093 11.2629 64.0804 12.3309 64.0804C13.2047 64.0804 13.7388 63.4997 13.7388 62.9189C13.7388 62.2897 13.2533 61.9993 12.6222 61.8057L12.0882 61.6121C11.1172 61.2733 10.1948 60.7409 10.1948 59.5309C10.1948 58.3693 11.1172 57.353 12.7678 57.353C13.5931 57.353 14.1757 57.5466 14.5641 57.6918V59.0953C14.1271 58.7081 13.6902 58.2726 12.8164 58.2726C12.0396 58.2726 11.5542 58.7081 11.5542 59.2889C11.5542 60.0149 12.0396 60.1601 12.7678 60.4505L13.496 60.7409C14.1271 60.9829 15.0981 61.3217 15.0981 62.6285C15.0981 63.9836 14.03 65.0484 12.428 65.0484C11.5056 65.0484 10.5347 64.758 10.2919 64.6128L10.0492 62.9673Z" fill="white"/>
<path d="M18.011 62.9673C18.2537 63.2093 19.2247 64.0804 20.2927 64.0804C21.1665 64.0804 21.7006 63.4997 21.7006 62.9189C21.7006 62.2897 21.2151 61.9993 20.584 61.8057L20.05 61.6121C19.079 61.2733 18.1566 60.7409 18.1566 59.5309C18.1566 58.3693 19.079 57.353 20.7296 57.353C21.5549 57.353 22.1375 57.5466 22.5259 57.6918V59.0953C22.0889 58.7081 21.652 58.2726 20.7782 58.2726C20.0014 58.2726 19.5159 58.7081 19.5159 59.2889C19.5159 60.0149 20.0014 60.1601 20.7296 60.4505L21.4578 60.7409C22.0889 60.9829 23.0599 61.3217 23.0599 62.6285C23.0599 63.9836 21.9918 65.0484 20.3898 65.0484C19.4674 65.0484 18.4965 64.758 18.2537 64.6128L18.011 62.9673Z" fill="white"/>
<path d="M26.1668 57.5949H30.5846L30.7303 58.8049C30.1962 58.4661 29.8564 58.4177 28.934 58.4177H27.7203V60.5473H28.6427C29.2738 60.5473 29.6622 60.5473 30.0506 60.3053V61.612C29.6622 61.4668 29.2738 61.3216 28.6913 61.3216H27.7203V63.8868H28.934C30.1962 63.8868 30.439 63.79 31.1672 63.4028L30.7303 64.758H26.1183C26.3125 64.3708 26.4096 64.032 26.4096 62.8704V59.2405C26.4581 58.5145 26.4581 57.9821 26.1668 57.5949Z" fill="white"/>
<path d="M33.9343 58.8533L34.3227 57.5949H39.7114L39.323 58.8049C38.9347 58.5145 38.5463 58.4177 38.1094 58.4177H37.3812V63.0156C37.3812 63.79 37.3812 64.1288 37.5754 64.758H35.8277C36.0704 64.1772 36.1189 63.8868 36.1189 62.9672V58.4177H35.5364C34.7111 58.4177 34.5654 58.4661 33.9343 58.8533Z" fill="white"/>
<path d="M47.0906 64.758C47.3333 64.4192 47.3819 64.1288 47.479 63.548L48.1586 58.8049C48.1586 58.6113 48.2072 58.4177 48.2072 58.2725C48.2072 57.9337 48.1101 57.7885 48.013 57.5949H49.9549C49.9549 57.9337 50.0034 58.1757 50.1976 58.6113L51.7996 62.4832L53.4017 58.6597C53.5959 58.1757 53.6444 57.9337 53.693 57.6433H55.5863C55.4892 57.7885 55.3921 57.9821 55.3921 58.2241C55.3921 58.4661 55.3921 58.7081 55.4407 58.9017L56.0718 63.5964C56.1203 64.1288 56.266 64.3708 56.4116 64.8064H54.5668C54.7125 64.516 54.8096 64.2256 54.8096 63.9352C54.8096 63.79 54.8096 63.6448 54.761 63.4996L54.1784 58.8533L51.654 64.8064H51.4598L49.0325 58.9017L48.3528 63.3544C48.3043 63.5964 48.3043 63.8384 48.3043 64.032C48.3043 64.3224 48.3528 64.5644 48.4984 64.8064L47.0906 64.758Z" fill="white"/>
<path d="M62.2372 59.4341L61.2663 61.612H63.2081L62.2372 59.4341ZM59.8099 62.9188L62.1887 57.5465H62.5285L65.3928 63.5964C65.6355 64.0804 65.8782 64.4192 66.1695 64.758H64.082C64.1791 64.6128 64.2276 64.4192 64.2276 64.2256C64.2276 64.032 64.082 63.6932 63.9849 63.4028L63.4994 62.3864H60.8779L60.3924 63.4028C60.1982 63.8868 60.0526 64.1288 60.0526 64.274C60.0526 64.4192 60.1011 64.6128 60.1497 64.758H58.7418C59.0331 64.4676 59.2758 64.1772 59.8099 62.9188Z" fill="white"/>
<path d="M68.9368 57.5949H70.8301C70.9757 57.9337 71.3156 58.3209 71.5583 58.6113L74.6653 62.2896V58.9017C74.6653 58.2241 74.6653 58.0789 74.4226 57.5465H75.7819C75.5877 57.9821 75.5392 58.1757 75.5392 58.9017V64.7096H75.1022L70.199 58.8533V63.1608C70.199 63.9836 70.2475 64.1772 70.5388 64.7096H69.0339C69.2766 64.3224 69.3251 64.032 69.3251 63.1608V59.1437C69.3251 58.1757 69.1795 57.9821 68.9368 57.5949Z" fill="white"/>
<path d="M82.093 59.4341L81.122 61.612H83.0639L82.093 59.4341ZM79.6656 62.9188L82.0444 57.5949H82.3842L85.2485 63.6448C85.4912 64.1288 85.734 64.4676 86.0253 64.8064H83.9377C84.0348 64.6612 84.0834 64.4676 84.0834 64.274C84.0834 64.0804 83.9377 63.7416 83.8406 63.4512L83.3552 62.4348H80.7336L80.2482 63.4512C80.054 63.9352 79.9083 64.1772 79.9083 64.3224C79.9083 64.4676 79.9569 64.6612 80.0054 64.8064H78.6461C78.8889 64.4676 79.1316 64.1772 79.6656 62.9188Z" fill="white"/>
<path d="M94.3268 57.6434L94.521 59.2405C94.1812 58.9017 93.4044 58.1757 92.2393 58.1757C90.2488 58.1757 89.6663 59.8697 89.6663 61.2249C89.6663 62.9189 90.5401 64.1772 92.5791 64.1772C93.016 64.1772 93.453 64.1288 93.8413 63.8868V62.6285C93.8413 61.8057 93.7928 61.5153 93.5015 61.0797H95.3948C95.2006 61.4185 95.1035 61.6605 95.1035 62.4833V64.516C94.3268 64.7096 93.5986 64.9516 92.7733 64.9516C90.0061 64.9516 88.2584 63.4997 88.2584 61.1765C88.2584 58.5145 90.2974 57.3046 92.3364 57.3046C93.1617 57.353 93.9384 57.5466 94.3268 57.6434Z" fill="white"/>
<path d="M98.5504 57.5949H102.968L103.114 58.8049C102.58 58.4661 102.24 58.4177 101.318 58.4177H100.104V60.5473H101.026C101.657 60.5473 102.046 60.5473 102.434 60.3053V61.612C102.046 61.4668 101.657 61.3216 101.075 61.3216H100.104V63.8868H101.318C102.58 63.8868 102.823 63.79 103.551 63.4028L103.114 64.758H98.5504C98.7446 64.3708 98.8417 64.032 98.8417 62.8704V59.2405C98.8417 58.5145 98.8417 57.9821 98.5504 57.5949Z" fill="white"/>
<path d="M106.269 64.758C106.512 64.4192 106.561 64.1288 106.658 63.548L107.337 58.8049C107.337 58.6113 107.386 58.4177 107.386 58.2725C107.386 57.9337 107.289 57.7885 107.192 57.5949H109.134C109.134 57.9337 109.182 58.1757 109.376 58.6113L110.978 62.4832L112.581 58.6597C112.775 58.1757 112.823 57.9337 112.872 57.6433H114.765C114.668 57.7885 114.571 57.9821 114.571 58.2241C114.571 58.4661 114.571 58.7081 114.62 58.9017L115.202 63.5964C115.251 64.1288 115.396 64.3708 115.542 64.8064H113.697C113.843 64.516 113.94 64.2256 113.94 63.9352C113.94 63.79 113.94 63.6448 113.891 63.4996L113.309 58.8533L110.784 64.8064H110.542L108.114 58.9017L107.435 63.3544C107.386 63.5964 107.386 63.8384 107.386 64.032C107.386 64.3224 107.435 64.5644 107.58 64.8064L106.269 64.758Z" fill="white"/>
<path d="M118.406 57.5949H122.824L122.97 58.8049C122.436 58.4661 122.096 58.4177 121.173 58.4177H119.96V60.5473H120.882C121.513 60.5473 121.902 60.5473 122.29 60.3053V61.612C121.902 61.4668 121.513 61.3216 120.931 61.3216H119.96V63.8868H121.173C122.436 63.8868 122.678 63.79 123.407 63.4028L122.97 64.758H118.358C118.552 64.3708 118.649 64.032 118.649 62.8704V59.2405C118.697 58.5145 118.697 57.9821 118.406 57.5949Z" fill="white"/>
<path d="M126.368 57.5949H128.261C128.407 57.9337 128.747 58.3209 128.989 58.6113L132.096 62.2896V58.9017C132.096 58.2241 132.096 58.0789 131.854 57.5465H133.213C133.019 57.9821 132.97 58.1757 132.97 58.9017V64.7096H132.533L127.63 58.8533V63.1608C127.63 63.9836 127.679 64.1772 127.97 64.7096H126.465C126.708 64.3224 126.756 64.032 126.756 63.1608V59.1437C126.805 58.1757 126.659 57.9821 126.368 57.5949Z" fill="white"/>
<path d="M136.174 58.8533L136.563 57.5949H141.951L141.563 58.8049C141.175 58.5145 140.786 58.4177 140.349 58.4177H139.621V63.0156C139.621 63.79 139.621 64.1288 139.815 64.758H138.068C138.31 64.1772 138.359 63.8868 138.359 62.9672V58.4177H137.728C136.951 58.4177 136.805 58.4661 136.174 58.8533Z" fill="white"/>
<path d="M82.2386 18.2949L76.6072 8.71184L61.8975 33.7342H56.7515L68.4027 13.9389L65.3928 8.71184C64.0821 10.9382 50.6831 33.7342 50.6831 33.7342H45.5371C47.6732 30.1042 65.3928 0 65.3928 0L71.0243 9.58302L76.6072 0C78.8404 3.82353 84.8116 13.9389 84.8116 13.9389L82.2386 18.2949Z" fill="#DDA654"/>
<path d="M82.2386 28.7007L87.87 19.1177L96.4629 33.7342H91.3169L87.87 27.8295L84.4232 33.7342H80.1025L76.6557 27.8295L73.2089 33.7342H68.0629L76.6557 19.1177L82.2386 28.7007Z" fill="#DDA654"/>
</g>
<defs>
<clipPath id="clip0_15_354">
<rect width="142" height="65" fill="white"/>
</clipPath>
</defs>
</svg>
