<svg width="724" height="302" viewBox="0 0 724 302" fill="none" xmlns="http://www.w3.org/2000/svg">
<g clip-path="url(#clip0_287_522)">
<path opacity="0.12" d="M7 284.275C7 292.477 176.148 302.018 371.075 302.018C566.002 302.018 723.982 295.364 723.982 287.167C723.982 278.97 565.975 272.317 371.075 272.317C176.174 272.317 7 276.074 7 284.275Z" fill="#32323F"/>
<path d="M322.735 52.0172C326.397 47.9054 322.903 48.859 328.491 44.1484C333.884 39.593 338.547 33.6936 342.271 28.8854C345.481 24.747 356.281 12.4736 366.833 18.1335C372.859 21.367 362.56 30.083 359.819 33.0371C354.722 38.5284 363.237 34.6828 363.91 39.5841C364.158 41.3584 354.231 39.9035 350.857 42.6181C347.872 45.0177 345.362 51.0768 344.135 52.3764C339.114 57.6992 338.596 61.3364 335.806 62.8135C333.017 64.2905 322.735 52.0172 322.735 52.0172Z" fill="#DEA169"/>
<path d="M312.869 104.641C308.596 98.782 343.763 62.503 347.673 55.9339C348.869 53.9246 333.57 31.0589 329.102 39.2604C326.445 44.0952 257.423 111.534 283.282 134.932C295.286 145.791 379.231 115.318 397.275 110.19C414.34 105.342 393.352 61.8067 377.123 74.3373C359.15 88.2119 316.266 109.299 312.869 104.641Z" fill="#0069AB"/>
<path opacity="0.18" d="M312.475 105.12C308.202 99.261 343.369 63.0087 347.279 56.4173C348.474 54.4035 333.176 31.5379 328.708 39.7394C326.073 44.5742 257.028 112.013 282.888 135.411C294.892 146.27 379.005 115.895 397.049 110.767C414.114 105.923 393.121 62.3877 376.893 74.9139C358.924 88.793 315.871 109.782 312.475 105.12Z" fill="#0A0A0A"/>
<path d="M332.932 162.336C328.713 164.757 295.255 129.095 289.49 124.052C287.719 122.513 266.624 122.912 268.236 129.428C269.564 134.751 317.328 207.495 338.454 194.472C352.238 185.991 390.978 127.334 397.496 109.716C403.802 92.6564 364.451 79.6113 364.933 96.236C365.5 116.179 337.927 159.47 332.932 162.336Z" fill="#0069AB"/>
<path opacity="0.18" d="M332.932 162.336C328.713 164.757 295.255 129.095 289.49 124.052C287.719 122.513 266.624 122.912 268.236 129.428C269.564 134.751 317.328 207.495 338.454 194.472C352.238 185.991 390.978 127.334 397.496 109.716C403.802 92.6564 364.451 79.6113 364.933 96.236C365.5 116.179 337.927 159.47 332.932 162.336Z" fill="#0A0A0A"/>
<path d="M239.604 263.676C240.145 255.639 244.032 235.692 244.032 235.692L265.109 238.398L259.025 268.307L243.594 275.581L239.604 263.676Z" fill="#DEA169"/>
<path d="M238.511 260.079C236.368 259.276 237.032 261.503 235.801 264.741C232.994 272.162 205.186 268.955 200.913 269.128C198.699 269.216 193.828 280.03 204.606 281.312C213.905 282.417 243.727 286.072 253.925 287.216C254.962 287.335 256.009 287.106 256.902 286.565C257.795 286.024 258.485 285.202 258.862 284.226C261.598 277.067 262.501 265.539 259.694 264.945C255.567 263.037 247.451 263.415 238.511 260.079Z" fill="#211B2D"/>
<path d="M427.93 228.036C380.21 228.036 352.836 111.22 319.339 113.22C291.739 114.87 221.353 249.575 235.619 252.499C249.886 255.422 266.681 264.173 268.918 256.491C271.154 248.808 309.159 156.064 321.065 169.894C332.972 183.724 355.519 265.14 363.277 267.478C371.035 269.815 427.93 228.036 427.93 228.036Z" fill="#3B3B4D"/>
<path opacity="0.24" d="M427.93 228.036C380.21 228.036 352.836 111.22 319.339 113.22C291.739 114.87 221.353 249.575 235.619 252.499C249.886 255.422 266.681 264.173 268.918 256.491C271.154 248.808 309.159 156.064 321.065 169.894C332.972 183.724 355.519 265.14 363.277 267.478C371.035 269.815 427.93 228.036 427.93 228.036Z" fill="#0A0A0A"/>
<path d="M167.5 252.893C171.671 246.005 184.273 230.076 184.273 230.076L201.746 242.19L182.604 265.943L165.565 265.295L167.5 252.893Z" fill="#DEA169"/>
<path d="M168.182 249.194C166.645 247.495 166.211 249.775 163.634 252.09C157.736 257.382 134.516 241.724 130.642 239.91C128.64 238.974 119.355 246.337 128.326 252.432C136.088 257.701 160.88 274.677 169.413 280.376C170.278 280.962 171.313 281.243 172.355 281.175C173.397 281.106 174.387 280.693 175.169 279.999C180.89 274.903 186.983 265.082 184.76 263.259C181.979 259.68 174.589 256.264 168.182 249.194Z" fill="#211B2D"/>
<path d="M441.395 260.727C432.65 281.13 414.544 297.542 380.21 287.198C368.201 283.579 343.901 269.576 334.655 255.639C329.709 248.169 321.424 234.751 312.515 220.491C295.286 192.946 275.688 162.256 273.213 165.254C269.453 169.801 200.594 254.725 192.961 255.621C185.327 256.517 162.793 242.221 166.57 235.812C170.347 229.402 245.667 117.762 278.385 115.318C301.481 113.592 366.31 213.669 379.342 218.415C392.373 223.161 448.418 221.116 448.418 221.116C448.931 231.425 447.289 246.981 441.395 260.727Z" fill="#3B3B4D"/>
<path d="M410.32 84.6679L388.592 95.1936C388.592 95.1936 375.972 88.2918 378.771 83.8606C381.264 79.9173 381.388 74.5857 380.715 69.9993C380.408 67.8928 379.927 65.8156 379.275 63.7894C379.024 62.9928 378.728 62.2109 378.39 61.4474C377.394 59.2651 376.619 59.274 376.619 59.2784L377.947 58.3913L384.337 54L384.691 52.4387L386.342 45.1598C386.342 45.1598 393.48 49.3382 397.111 56.8433C400.419 63.683 408.19 76.5773 410.32 84.6679Z" fill="#DEA169"/>
<path opacity="0.18" d="M380.714 69.9992C380.408 67.8927 379.927 65.8155 379.275 63.7894C379.084 63.089 378.849 62.4016 378.571 61.7313C378.107 60.6773 377.879 59.5342 377.903 58.3824C378.146 53.8625 384.328 53.9866 384.328 53.9866C384.328 53.9866 384.004 52.4342 384.682 52.4253C384.908 52.4253 385.24 52.5894 385.731 53.0419C388.933 55.9871 391.536 70.6468 380.714 69.9992Z" fill="#191939"/>
<path d="M354.922 43.3544C357.087 49.4623 355.807 63.603 359.792 61.7933C363.778 59.9835 364.349 74.701 368.648 72.9312C379.032 68.6331 387.883 56.8165 386.98 51.2631C386.077 45.7097 379.129 32.1899 379.129 32.1899L354.922 43.3544Z" fill="#DEA169"/>
<path d="M368.011 44.2415C364.955 46.0823 365.199 46.9029 362.445 46.823C359.691 46.7432 362.192 41.8552 357.663 43.0661C353.133 44.277 348.364 46.1134 345.769 41.4826C341.979 34.7715 348.656 33.0549 352.854 32.1411C355.55 31.5468 353.739 25.9313 358.77 23.9175C362.706 22.3518 363.273 24.8046 366.846 23.5671C369.007 22.8175 371.518 17.5569 375.884 18.5948C383.978 20.5154 381.538 28.4907 388.764 31.1831C397.178 34.3235 389.247 52.7712 386.993 51.9906C384.385 51.0768 384.381 43.8689 381.901 43.3012C378.159 42.4407 378.886 44.9779 377.54 48.2425C376.105 51.7244 371.566 53.9555 372.474 48.0695C373.382 42.1834 370.778 42.556 368.011 44.2415Z" fill="#191939"/>
<path d="M403.062 68.2428C395.535 66.5661 391.213 79.3319 385.204 80.1702C381.556 80.6803 383.163 73.8228 381.33 72.1594C379.701 72.9565 378.354 74.2333 377.469 75.8188C354.736 118.135 383.225 207.77 383.225 207.77C383.225 207.77 402.301 225.392 439.566 224.882C462.255 224.576 439.934 202.048 438.902 196.685C437.871 191.322 419.588 86.5752 419.588 86.5752C419.588 86.5752 414.779 77.9524 403.062 68.2428Z" fill="white"/>
<path d="M448.511 248.968C441.838 267.699 432.26 252.929 424.095 242.505C422.649 240.597 421.082 238.785 419.401 237.08C414.916 232.645 415.19 227.606 415.633 220.952C415.784 218.646 415.956 216.144 415.956 213.412C415.967 210.415 415.73 207.423 415.248 204.465C414.276 198.86 412.485 193.429 409.934 188.346C408.708 185.521 407.317 182.58 405.865 179.595C402.827 173.354 399.515 166.838 396.881 160.388V160.335C395.577 157.196 394.465 153.98 393.551 150.705C391.917 145.471 391.456 139 391.744 131.952C391.742 131.926 391.742 131.901 391.744 131.876C392.076 123.719 393.405 114.803 395.07 106.15C396.017 101.217 397.071 96.3912 398.107 91.8181C400.321 82.0597 402.469 73.632 403.332 68.3758C421.172 63.8426 447.466 90.6781 450.477 117.762C450.946 122.242 451.362 126.589 451.712 130.789C453.098 146.731 446.66 165.445 449.409 175.993C452.952 189.743 447.319 186.288 453.341 204.212C458.726 220.203 455.768 228.595 448.511 248.968Z" fill="#0069A8"/>
<path d="M362.055 127.6C363.432 134.573 365.407 147.889 366.483 157.19C367.811 168.692 371.991 176.68 371.766 181.169C371.248 191.371 378.177 205.751 387.011 211.451C391.594 214.405 393.436 210.289 392.484 202.731C391.156 191.988 387.06 189.078 382.503 162.424C378.177 137.053 371.097 122.3 372.518 100.991C373.594 84.8719 381.339 72.1594 381.339 72.1594C356.268 82.6009 361.285 123.706 362.055 127.6Z" fill="#0067A7"/>
<path opacity="0.18" d="M362.055 127.6C363.432 134.573 365.407 147.889 366.483 157.19C367.811 168.692 371.991 176.68 371.766 181.169C371.248 191.371 378.177 205.751 387.011 211.451C391.594 214.405 393.436 210.289 392.484 202.731C391.156 191.988 387.06 189.078 382.503 162.424C378.177 137.053 371.097 122.3 372.518 100.991C373.594 84.8719 381.339 72.1594 381.339 72.1594C356.268 82.6009 361.285 123.706 362.055 127.6Z" fill="#0A0A0A"/>
<path opacity="0.15" d="M405.874 179.586C402.836 173.345 399.524 166.829 396.889 160.38V160.326C395.586 157.187 394.474 153.971 393.56 150.697C391.926 145.463 391.465 138.991 391.753 131.943C391.751 131.918 391.751 131.892 391.753 131.867C392.085 123.71 393.414 114.795 395.078 106.141C396.026 101.208 397.08 96.3824 398.116 91.8092L412.861 90.6693C419.627 110.195 412.179 151.14 405.874 179.586Z" fill="#0A0A0A"/>
<path d="M330.404 62.3833C332.569 57.3178 329.558 59.336 333.349 53.0685C337.006 47.0316 339.548 39.9479 341.545 34.2038C343.272 29.2536 349.595 14.1725 361.395 16.1596C368.139 17.2996 361.156 28.8544 359.5 32.5271C356.401 39.3579 363.264 32.9973 365.465 37.4063C366.266 39.0208 356.387 40.804 354.058 44.4545C351.995 47.6836 351.543 54.2129 350.795 55.8496C347.722 62.4764 348.399 66.1092 346.225 68.398C344.051 70.6867 330.404 62.3833 330.404 62.3833Z" fill="#DEA169"/>
<path d="M342.475 121.421C337.878 119.833 351.446 65.1822 353.053 57.686C353.544 55.3927 334.013 39.0563 332.379 48.2735C331.422 53.6983 289.574 144.345 322.597 155.496C337.923 160.672 411.599 123.861 429.054 116.999C445.57 110.505 422.005 68.0254 407.853 76.7281C393.307 85.6614 347.916 123.289 342.475 121.421Z" fill="#0069AB"/>
<path d="M478.072 207.362L458.845 207.583C455.879 207.614 453.532 211.203 453.589 215.567L453.762 227.739C453.762 227.766 453.773 227.793 453.792 227.813C453.811 227.832 453.837 227.844 453.864 227.845L457.442 227.801C457.455 227.801 457.469 227.798 457.482 227.793C457.494 227.787 457.506 227.779 457.515 227.77C457.525 227.76 457.532 227.748 457.537 227.735C457.542 227.722 457.544 227.708 457.544 227.694L457.424 219.116C457.375 215.838 459.133 213.155 461.352 213.128L475.725 212.964C477.939 212.937 479.776 215.581 479.821 218.859L479.945 227.437C479.945 227.465 479.955 227.491 479.974 227.511C479.993 227.531 480.019 227.543 480.046 227.544L483.624 227.504C483.638 227.503 483.652 227.5 483.665 227.494C483.677 227.488 483.689 227.48 483.698 227.469C483.708 227.459 483.715 227.447 483.72 227.434C483.724 227.421 483.727 227.407 483.726 227.393L483.553 215.222C483.491 210.861 481.038 207.326 478.072 207.362Z" fill="#201B2C"/>
<path d="M458.845 207.535C455.879 207.57 453.532 211.158 453.589 215.519L453.762 227.69C453.762 227.718 453.773 227.745 453.793 227.765C453.813 227.785 453.84 227.796 453.868 227.796L457.442 227.757C457.455 227.757 457.469 227.754 457.482 227.748C457.494 227.743 457.506 227.735 457.515 227.725C457.525 227.715 457.532 227.703 457.537 227.69C457.542 227.678 457.544 227.664 457.544 227.65L457.42 219.072C457.375 215.789 459.133 213.11 461.352 213.083L462.822 207.65C462.826 207.634 462.828 207.618 462.825 207.602C462.822 207.586 462.816 207.57 462.807 207.557C462.797 207.544 462.785 207.533 462.771 207.525C462.756 207.517 462.741 207.513 462.724 207.512L458.845 207.535Z" fill="#201B2C"/>
<path d="M409.013 233.261L409.509 289.744C409.54 293.16 412.215 295.91 415.487 295.892H415.562L512.238 296.633C523.144 296.575 523.002 288.538 522.971 285.184L524.029 231.793C524.003 228.44 520.044 219.635 511.317 219.817L425.304 220.26H422.076C414.969 220.296 408.942 225.658 409.013 233.261Z" fill="#603A3E"/>
<path d="M409.013 233.261L409.509 289.744C409.54 293.16 412.215 295.91 415.487 295.892C415.509 295.893 415.53 295.886 415.548 295.874C415.566 295.861 415.578 295.842 415.584 295.821C416.66 292.463 417.311 287.185 416.709 278.895C415.252 258.757 420.579 235.909 425.259 220.38C425.265 220.365 425.267 220.348 425.265 220.331C425.263 220.315 425.257 220.299 425.247 220.286C425.237 220.272 425.225 220.261 425.21 220.254C425.195 220.246 425.179 220.242 425.162 220.243H422.062C414.969 220.296 408.942 225.659 409.013 233.261Z" fill="#775155"/>
</g>
<path d="M38.6133 30.5879V32.7852C38.6133 36.0078 38.1836 38.9082 37.3242 41.4863C36.4648 44.0449 35.2441 46.2227 33.6621 48.0195C32.0801 49.8164 30.1953 51.1934 28.0078 52.1504C25.8203 53.1074 23.3887 53.5859 20.7129 53.5859C18.0762 53.5859 15.6543 53.1074 13.4473 52.1504C11.2598 51.1934 9.36523 49.8164 7.76367 48.0195C6.16211 46.2227 4.92188 44.0449 4.04297 41.4863C3.16406 38.9082 2.72461 36.0078 2.72461 32.7852V30.5879C2.72461 27.3457 3.16406 24.4453 4.04297 21.8867C4.92188 19.3281 6.15234 17.1504 7.73438 15.3535C9.31641 13.5371 11.2012 12.1504 13.3887 11.1934C15.5957 10.2363 18.0176 9.75781 20.6543 9.75781C23.3301 9.75781 25.7617 10.2363 27.9492 11.1934C30.1367 12.1504 32.0215 13.5371 33.6035 15.3535C35.2051 17.1504 36.4355 19.3281 37.2949 21.8867C38.1738 24.4453 38.6133 27.3457 38.6133 30.5879ZM30.4688 32.7852V30.5293C30.4688 28.2051 30.2539 26.1641 29.8242 24.4062C29.3945 22.6289 28.7598 21.1348 27.9199 19.9238C27.0801 18.7129 26.0449 17.8047 24.8145 17.1992C23.584 16.5742 22.1973 16.2617 20.6543 16.2617C19.0918 16.2617 17.7051 16.5742 16.4941 17.1992C15.3027 17.8047 14.2871 18.7129 13.4473 19.9238C12.6074 21.1348 11.9629 22.6289 11.5137 24.4062C11.084 26.1641 10.8691 28.2051 10.8691 30.5293V32.7852C10.8691 35.0898 11.084 37.1309 11.5137 38.9082C11.9629 40.6855 12.6074 42.1895 13.4473 43.4199C14.3066 44.6309 15.3418 45.5488 16.5527 46.1738C17.7637 46.7988 19.1504 47.1113 20.7129 47.1113C22.2754 47.1113 23.6621 46.7988 24.873 46.1738C26.084 45.5488 27.0996 44.6309 27.9199 43.4199C28.7598 42.1895 29.3945 40.6855 29.8242 38.9082C30.2539 37.1309 30.4688 35.0898 30.4688 32.7852ZM43.4766 37.4727V36.8574C43.4766 34.5332 43.8086 32.3945 44.4727 30.4414C45.1367 28.4688 46.1035 26.7598 47.373 25.3145C48.6426 23.8691 50.1953 22.7461 52.0312 21.9453C53.8672 21.125 55.957 20.7148 58.3008 20.7148C60.6836 20.7148 62.793 21.125 64.6289 21.9453C66.4844 22.7461 68.0469 23.8691 69.3164 25.3145C70.5859 26.7598 71.5527 28.4688 72.2168 30.4414C72.8809 32.3945 73.2129 34.5332 73.2129 36.8574V37.4727C73.2129 39.7773 72.8809 41.916 72.2168 43.8887C71.5527 45.8418 70.5859 47.5508 69.3164 49.0156C68.0469 50.4609 66.4941 51.584 64.6582 52.3848C62.8223 53.1855 60.7227 53.5859 58.3594 53.5859C56.0156 53.5859 53.916 53.1855 52.0605 52.3848C50.2051 51.584 48.6426 50.4609 47.373 49.0156C46.1035 47.5508 45.1367 45.8418 44.4727 43.8887C43.8086 41.916 43.4766 39.7773 43.4766 37.4727ZM51.2109 36.8574V37.4727C51.2109 38.8594 51.3477 40.1582 51.6211 41.3691C51.8945 42.5801 52.3145 43.6445 52.8809 44.5625C53.4473 45.4805 54.1797 46.2031 55.0781 46.7305C55.9961 47.2383 57.0898 47.4922 58.3594 47.4922C59.6094 47.4922 60.6836 47.2383 61.582 46.7305C62.4805 46.2031 63.2129 45.4805 63.7793 44.5625C64.3652 43.6445 64.7949 42.5801 65.0684 41.3691C65.3418 40.1582 65.4785 38.8594 65.4785 37.4727V36.8574C65.4785 35.4902 65.3418 34.2109 65.0684 33.0195C64.7949 31.8086 64.3652 30.7441 63.7793 29.8262C63.2129 28.8887 62.4707 28.1562 61.5527 27.6289C60.6543 27.082 59.5703 26.8086 58.3008 26.8086C57.0508 26.8086 55.9766 27.082 55.0781 27.6289C54.1797 28.1562 53.4473 28.8887 52.8809 29.8262C52.3145 30.7441 51.8945 31.8086 51.6211 33.0195C51.3477 34.2109 51.2109 35.4902 51.2109 36.8574ZM86.5723 27.3945V65.1875H78.8086V21.3008H85.9863L86.5723 27.3945ZM106.934 36.8281V37.4434C106.934 39.748 106.66 41.8867 106.113 43.8594C105.586 45.8125 104.805 47.5215 103.77 48.9863C102.734 50.4316 101.445 51.5645 99.9023 52.3848C98.3789 53.1855 96.6211 53.5859 94.6289 53.5859C92.6758 53.5859 90.9766 53.2148 89.5312 52.4727C88.0859 51.7109 86.8652 50.6367 85.8691 49.25C84.873 47.8633 84.0723 46.252 83.4668 44.416C82.8809 42.5605 82.4414 40.5391 82.1484 38.3516V36.3887C82.4414 34.0645 82.8809 31.9551 83.4668 30.0605C84.0723 28.1465 84.873 26.4961 85.8691 25.1094C86.8652 23.7031 88.0762 22.6191 89.502 21.8574C90.9473 21.0957 92.6367 20.7148 94.5703 20.7148C96.582 20.7148 98.3496 21.0957 99.873 21.8574C101.416 22.6191 102.715 23.7129 103.77 25.1387C104.824 26.5645 105.615 28.2637 106.143 30.2363C106.67 32.209 106.934 34.4062 106.934 36.8281ZM99.1699 37.4434V36.8281C99.1699 35.4219 99.043 34.123 98.7891 32.9316C98.5352 31.7207 98.1445 30.666 97.6172 29.7676C97.0898 28.8496 96.4062 28.1367 95.5664 27.6289C94.7266 27.1211 93.7109 26.8672 92.5195 26.8672C91.3281 26.8672 90.3027 27.0625 89.4434 27.4531C88.584 27.8438 87.8809 28.4004 87.334 29.123C86.7871 29.8457 86.3574 30.7051 86.0449 31.7012C85.752 32.6777 85.5566 33.7617 85.459 34.9531V39.8164C85.6348 41.2617 85.9766 42.5605 86.4844 43.7129C86.9922 44.8652 87.7344 45.7832 88.7109 46.4668C89.707 47.1504 90.9961 47.4922 92.5781 47.4922C93.7695 47.4922 94.7852 47.2285 95.625 46.7012C96.4648 46.1738 97.1484 45.4512 97.6758 44.5332C98.2031 43.5957 98.584 42.5215 98.8184 41.3105C99.0527 40.0996 99.1699 38.8105 99.1699 37.4434ZM130.02 44.3281C130.02 43.6641 129.844 43.0684 129.492 42.541C129.141 42.0137 128.477 41.5352 127.5 41.1055C126.543 40.6562 125.137 40.2363 123.281 39.8457C121.641 39.4941 120.127 39.0547 118.74 38.5273C117.354 38 116.162 37.3652 115.166 36.623C114.17 35.8613 113.389 34.9727 112.822 33.957C112.275 32.9219 112.002 31.7305 112.002 30.3828C112.002 29.0742 112.285 27.8438 112.852 26.6914C113.418 25.5195 114.238 24.4941 115.312 23.6152C116.387 22.7168 117.695 22.0137 119.238 21.5059C120.781 20.9785 122.52 20.7148 124.453 20.7148C127.148 20.7148 129.463 21.1543 131.396 22.0332C133.35 22.9121 134.844 24.123 135.879 25.666C136.914 27.1895 137.432 28.9082 137.432 30.8223H129.697C129.697 29.9824 129.502 29.2207 129.111 28.5371C128.74 27.8535 128.164 27.3066 127.383 26.8965C126.602 26.4668 125.615 26.252 124.424 26.252C123.35 26.252 122.441 26.4277 121.699 26.7793C120.977 27.1309 120.43 27.5898 120.059 28.1562C119.688 28.7227 119.502 29.3477 119.502 30.0312C119.502 30.5391 119.6 30.998 119.795 31.4082C120.01 31.7988 120.352 32.1602 120.82 32.4922C121.289 32.8242 121.924 33.127 122.725 33.4004C123.545 33.6738 124.551 33.9375 125.742 34.1914C128.105 34.6602 130.166 35.2852 131.924 36.0664C133.701 36.8281 135.088 37.8438 136.084 39.1133C137.08 40.3828 137.578 42.0039 137.578 43.9766C137.578 45.3828 137.275 46.6719 136.67 47.8438C136.064 48.9961 135.186 50.002 134.033 50.8613C132.881 51.7207 131.504 52.3945 129.902 52.8828C128.301 53.3516 126.494 53.5859 124.482 53.5859C121.572 53.5859 119.111 53.0684 117.1 52.0332C115.088 50.9785 113.564 49.6504 112.529 48.0488C111.494 46.4277 110.977 44.748 110.977 43.0098H118.389C118.447 44.2402 118.779 45.2266 119.385 45.9688C119.99 46.7109 120.752 47.248 121.67 47.5801C122.607 47.8926 123.594 48.0488 124.629 48.0488C125.801 48.0488 126.787 47.8926 127.588 47.5801C128.389 47.248 128.994 46.8086 129.404 46.2617C129.814 45.6953 130.02 45.0508 130.02 44.3281ZM152.285 10.3438L151.436 40.1973H144.902L144.053 10.3438H152.285ZM143.818 49.3965C143.818 48.2441 144.209 47.2773 144.99 46.4961C145.791 45.6953 146.865 45.2949 148.213 45.2949C149.561 45.2949 150.625 45.6953 151.406 46.4961C152.207 47.2773 152.607 48.2441 152.607 49.3965C152.607 50.5293 152.207 51.4863 151.406 52.2676C150.625 53.0488 149.561 53.4395 148.213 53.4395C146.865 53.4395 145.791 53.0488 144.99 52.2676C144.209 51.4863 143.818 50.5293 143.818 49.3965Z" fill="#A91D4C"/>
<path d="M20.4688 86.957H24.2188C24.0234 88.7539 23.5091 90.362 22.6758 91.7812C21.8424 93.2005 20.6641 94.3268 19.1406 95.1602C17.6172 95.9805 15.7161 96.3906 13.4375 96.3906C11.7708 96.3906 10.2539 96.0781 8.88672 95.4531C7.53255 94.8281 6.36719 93.9427 5.39062 92.7969C4.41406 91.638 3.65885 90.2513 3.125 88.6367C2.60417 87.0091 2.34375 85.1992 2.34375 83.207V80.375C2.34375 78.3828 2.60417 76.5794 3.125 74.9648C3.65885 73.3372 4.42057 71.944 5.41016 70.7852C6.41276 69.6263 7.61719 68.7344 9.02344 68.1094C10.4297 67.4844 12.0117 67.1719 13.7695 67.1719C15.918 67.1719 17.7344 67.5755 19.2188 68.3828C20.7031 69.1901 21.8555 70.3099 22.6758 71.7422C23.5091 73.1615 24.0234 74.8086 24.2188 76.6836H20.4688C20.2865 75.3555 19.9479 74.2161 19.4531 73.2656C18.9583 72.3021 18.2552 71.5599 17.3438 71.0391C16.4323 70.5182 15.2409 70.2578 13.7695 70.2578C12.5065 70.2578 11.3932 70.4987 10.4297 70.9805C9.47917 71.4622 8.67839 72.1458 8.02734 73.0312C7.38932 73.9167 6.90755 74.9779 6.58203 76.2148C6.25651 77.4518 6.09375 78.8255 6.09375 80.3359V83.207C6.09375 84.6003 6.23698 85.9089 6.52344 87.1328C6.82292 88.3568 7.27214 89.431 7.87109 90.3555C8.47005 91.2799 9.23177 92.0091 10.1562 92.543C11.0807 93.0638 12.1745 93.3242 13.4375 93.3242C15.0391 93.3242 16.3151 93.0703 17.2656 92.5625C18.2161 92.0547 18.9323 91.3255 19.4141 90.375C19.9089 89.4245 20.2604 88.2852 20.4688 86.957ZM41.7383 91.1172V74.8672H45.3711V96H41.9141L41.7383 91.1172ZM42.4219 86.6641L43.9258 86.625C43.9258 88.0312 43.776 89.3333 43.4766 90.5312C43.1901 91.7161 42.7214 92.7448 42.0703 93.6172C41.4193 94.4896 40.5664 95.1732 39.5117 95.668C38.457 96.1497 37.1745 96.3906 35.6641 96.3906C34.6354 96.3906 33.6914 96.2409 32.832 95.9414C31.9857 95.6419 31.2565 95.1797 30.6445 94.5547C30.0326 93.9297 29.5573 93.1159 29.2188 92.1133C28.8932 91.1107 28.7305 89.9062 28.7305 88.5V74.8672H32.3438V88.5391C32.3438 89.4896 32.4479 90.2773 32.6562 90.9023C32.8776 91.5143 33.1706 92.0026 33.5352 92.3672C33.9128 92.7188 34.3294 92.9661 34.7852 93.1094C35.2539 93.2526 35.7357 93.3242 36.2305 93.3242C37.7669 93.3242 38.9844 93.0312 39.8828 92.4453C40.7812 91.8464 41.4258 91.0456 41.8164 90.043C42.2201 89.0273 42.4219 87.901 42.4219 86.6641ZM54.4922 78.1875V96H50.8789V74.8672H54.3945L54.4922 78.1875ZM61.0938 74.75L61.0742 78.1094C60.7747 78.0443 60.4883 78.0052 60.2148 77.9922C59.9544 77.9661 59.6549 77.9531 59.3164 77.9531C58.4831 77.9531 57.7474 78.0833 57.1094 78.3438C56.4714 78.6042 55.931 78.9688 55.4883 79.4375C55.0456 79.9062 54.694 80.4661 54.4336 81.1172C54.1862 81.7552 54.0234 82.4583 53.9453 83.2266L52.9297 83.8125C52.9297 82.5365 53.0534 81.3385 53.3008 80.2188C53.5612 79.099 53.9583 78.1094 54.4922 77.25C55.026 76.3776 55.7031 75.7005 56.5234 75.2188C57.3568 74.724 58.3464 74.4766 59.4922 74.4766C59.7526 74.4766 60.0521 74.5091 60.3906 74.5742C60.7292 74.6263 60.9635 74.6849 61.0938 74.75ZM68.0469 78.1875V96H64.4336V74.8672H67.9492L68.0469 78.1875ZM74.6484 74.75L74.6289 78.1094C74.3294 78.0443 74.043 78.0052 73.7695 77.9922C73.5091 77.9661 73.2096 77.9531 72.8711 77.9531C72.0378 77.9531 71.3021 78.0833 70.6641 78.3438C70.026 78.6042 69.4857 78.9688 69.043 79.4375C68.6003 79.9062 68.2487 80.4661 67.9883 81.1172C67.7409 81.7552 67.5781 82.4583 67.5 83.2266L66.4844 83.8125C66.4844 82.5365 66.6081 81.3385 66.8555 80.2188C67.1159 79.099 67.513 78.1094 68.0469 77.25C68.5807 76.3776 69.2578 75.7005 70.0781 75.2188C70.9115 74.724 71.901 74.4766 73.0469 74.4766C73.3073 74.4766 73.6068 74.5091 73.9453 74.5742C74.2839 74.6263 74.5182 74.6849 74.6484 74.75ZM86.3672 96.3906C84.8958 96.3906 83.5612 96.1432 82.3633 95.6484C81.1784 95.1406 80.1562 94.431 79.2969 93.5195C78.4505 92.6081 77.7995 91.5273 77.3438 90.2773C76.888 89.0273 76.6602 87.6602 76.6602 86.1758V85.3555C76.6602 83.6367 76.9141 82.1068 77.4219 80.7656C77.9297 79.4115 78.6198 78.2656 79.4922 77.3281C80.3646 76.3906 81.3542 75.681 82.4609 75.1992C83.5677 74.7174 84.7135 74.4766 85.8984 74.4766C87.4089 74.4766 88.7109 74.737 89.8047 75.2578C90.9115 75.7786 91.8164 76.5078 92.5195 77.4453C93.2227 78.3698 93.7435 79.4635 94.082 80.7266C94.4206 81.9766 94.5898 83.3438 94.5898 84.8281V86.4492H78.8086V83.5H90.9766V83.2266C90.9245 82.2891 90.7292 81.3776 90.3906 80.4922C90.0651 79.6068 89.5443 78.8776 88.8281 78.3047C88.112 77.7318 87.1354 77.4453 85.8984 77.4453C85.0781 77.4453 84.3229 77.6211 83.6328 77.9727C82.9427 78.3112 82.3503 78.819 81.8555 79.4961C81.3607 80.1732 80.9766 81 80.7031 81.9766C80.4297 82.9531 80.293 84.0794 80.293 85.3555V86.1758C80.293 87.1784 80.4297 88.1224 80.7031 89.0078C80.9896 89.8802 81.3997 90.6484 81.9336 91.3125C82.4805 91.9766 83.138 92.4974 83.9062 92.875C84.6875 93.2526 85.5729 93.4414 86.5625 93.4414C87.8385 93.4414 88.9193 93.181 89.8047 92.6602C90.6901 92.1393 91.4648 91.4427 92.1289 90.5703L94.3164 92.3086C93.8607 92.9987 93.2812 93.6562 92.5781 94.2812C91.875 94.9062 91.0091 95.4141 89.9805 95.8047C88.9648 96.1953 87.7604 96.3906 86.3672 96.3906ZM102.422 79.3789V96H98.8086V74.8672H102.227L102.422 79.3789ZM101.562 84.6328L100.059 84.5742C100.072 83.1289 100.286 81.7943 100.703 80.5703C101.12 79.3333 101.706 78.2591 102.461 77.3477C103.216 76.4362 104.115 75.7331 105.156 75.2383C106.211 74.7305 107.376 74.4766 108.652 74.4766C109.694 74.4766 110.632 74.6198 111.465 74.9062C112.298 75.1797 113.008 75.6224 113.594 76.2344C114.193 76.8464 114.648 77.6406 114.961 78.6172C115.273 79.5807 115.43 80.7591 115.43 82.1523V96H111.797V82.1133C111.797 81.0065 111.634 80.1211 111.309 79.457C110.983 78.7799 110.508 78.2917 109.883 77.9922C109.258 77.6797 108.49 77.5234 107.578 77.5234C106.68 77.5234 105.859 77.7122 105.117 78.0898C104.388 78.4674 103.757 78.9883 103.223 79.6523C102.702 80.3164 102.292 81.0781 101.992 81.9375C101.706 82.7839 101.562 83.6823 101.562 84.6328ZM129.766 74.8672V77.6406H118.34V74.8672H129.766ZM122.207 69.7305H125.82V90.7656C125.82 91.4818 125.931 92.0221 126.152 92.3867C126.374 92.7513 126.66 92.9922 127.012 93.1094C127.363 93.2266 127.741 93.2852 128.145 93.2852C128.444 93.2852 128.757 93.2591 129.082 93.207C129.421 93.1419 129.674 93.0898 129.844 93.0508L129.863 96C129.577 96.0911 129.199 96.1758 128.73 96.2539C128.275 96.3451 127.721 96.3906 127.07 96.3906C126.185 96.3906 125.371 96.2148 124.629 95.8633C123.887 95.5117 123.294 94.9258 122.852 94.1055C122.422 93.2721 122.207 92.1523 122.207 90.7461V69.7305ZM137.93 66V96H134.297V66H137.93ZM149.668 93.8125L155.547 74.8672H159.414L150.938 99.2617C150.742 99.7826 150.482 100.342 150.156 100.941C149.844 101.553 149.44 102.133 148.945 102.68C148.451 103.227 147.852 103.669 147.148 104.008C146.458 104.359 145.632 104.535 144.668 104.535C144.382 104.535 144.017 104.496 143.574 104.418C143.132 104.34 142.819 104.275 142.637 104.223L142.617 101.293C142.721 101.306 142.884 101.319 143.105 101.332C143.34 101.358 143.503 101.371 143.594 101.371C144.414 101.371 145.111 101.26 145.684 101.039C146.257 100.831 146.738 100.473 147.129 99.9648C147.533 99.4701 147.878 98.7865 148.164 97.9141L149.668 93.8125ZM145.352 74.8672L150.84 91.2734L151.777 95.082L149.18 96.4102L141.406 74.8672H145.352ZM163.848 91.7031V94.6133C163.848 95.7982 163.548 97.0482 162.949 98.3633C162.35 99.6914 161.51 100.798 160.43 101.684L158.379 100.258C158.796 99.6849 159.147 99.099 159.434 98.5C159.72 97.9141 159.935 97.3021 160.078 96.6641C160.234 96.0391 160.312 95.375 160.312 94.6719V91.7031H163.848ZM184.316 93.8125L190.195 74.8672H194.062L185.586 99.2617C185.391 99.7826 185.13 100.342 184.805 100.941C184.492 101.553 184.089 102.133 183.594 102.68C183.099 103.227 182.5 103.669 181.797 104.008C181.107 104.359 180.28 104.535 179.316 104.535C179.03 104.535 178.665 104.496 178.223 104.418C177.78 104.34 177.467 104.275 177.285 104.223L177.266 101.293C177.37 101.306 177.533 101.319 177.754 101.332C177.988 101.358 178.151 101.371 178.242 101.371C179.062 101.371 179.759 101.26 180.332 101.039C180.905 100.831 181.387 100.473 181.777 99.9648C182.181 99.4701 182.526 98.7865 182.812 97.9141L184.316 93.8125ZM180 74.8672L185.488 91.2734L186.426 95.082L183.828 96.4102L176.055 74.8672H180ZM196.055 85.668V85.2188C196.055 83.6953 196.276 82.2826 196.719 80.9805C197.161 79.6654 197.799 78.526 198.633 77.5625C199.466 76.5859 200.475 75.8307 201.66 75.2969C202.845 74.75 204.173 74.4766 205.645 74.4766C207.129 74.4766 208.464 74.75 209.648 75.2969C210.846 75.8307 211.862 76.5859 212.695 77.5625C213.542 78.526 214.186 79.6654 214.629 80.9805C215.072 82.2826 215.293 83.6953 215.293 85.2188V85.668C215.293 87.1914 215.072 88.6042 214.629 89.9062C214.186 91.2083 213.542 92.3477 212.695 93.3242C211.862 94.2878 210.853 95.043 209.668 95.5898C208.496 96.1237 207.168 96.3906 205.684 96.3906C204.199 96.3906 202.865 96.1237 201.68 95.5898C200.495 95.043 199.479 94.2878 198.633 93.3242C197.799 92.3477 197.161 91.2083 196.719 89.9062C196.276 88.6042 196.055 87.1914 196.055 85.668ZM199.668 85.2188V85.668C199.668 86.7227 199.792 87.7188 200.039 88.6562C200.286 89.5807 200.658 90.401 201.152 91.1172C201.66 91.8333 202.292 92.3997 203.047 92.8164C203.802 93.2201 204.681 93.4219 205.684 93.4219C206.673 93.4219 207.539 93.2201 208.281 92.8164C209.036 92.3997 209.661 91.8333 210.156 91.1172C210.651 90.401 211.022 89.5807 211.27 88.6562C211.53 87.7188 211.66 86.7227 211.66 85.668V85.2188C211.66 84.1771 211.53 83.194 211.27 82.2695C211.022 81.332 210.645 80.5052 210.137 79.7891C209.642 79.0599 209.017 78.487 208.262 78.0703C207.52 77.6536 206.647 77.4453 205.645 77.4453C204.655 77.4453 203.783 77.6536 203.027 78.0703C202.285 78.487 201.66 79.0599 201.152 79.7891C200.658 80.5052 200.286 81.332 200.039 82.2695C199.792 83.194 199.668 84.1771 199.668 85.2188ZM232.754 91.1172V74.8672H236.387V96H232.93L232.754 91.1172ZM233.438 86.6641L234.941 86.625C234.941 88.0312 234.792 89.3333 234.492 90.5312C234.206 91.7161 233.737 92.7448 233.086 93.6172C232.435 94.4896 231.582 95.1732 230.527 95.668C229.473 96.1497 228.19 96.3906 226.68 96.3906C225.651 96.3906 224.707 96.2409 223.848 95.9414C223.001 95.6419 222.272 95.1797 221.66 94.5547C221.048 93.9297 220.573 93.1159 220.234 92.1133C219.909 91.1107 219.746 89.9062 219.746 88.5V74.8672H223.359V88.5391C223.359 89.4896 223.464 90.2773 223.672 90.9023C223.893 91.5143 224.186 92.0026 224.551 92.3672C224.928 92.7188 225.345 92.9661 225.801 93.1094C226.27 93.2526 226.751 93.3242 227.246 93.3242C228.783 93.3242 230 93.0312 230.898 92.4453C231.797 91.8464 232.441 91.0456 232.832 90.043C233.236 89.0273 233.438 87.901 233.438 86.6641ZM16.0742 134.898V109H19.707V139H16.3867L16.0742 134.898ZM1.85547 128.668V128.258C1.85547 126.643 2.05078 125.178 2.44141 123.863C2.84505 122.535 3.41146 121.396 4.14062 120.445C4.88281 119.495 5.76172 118.766 6.77734 118.258C7.80599 117.737 8.95182 117.477 10.2148 117.477C11.543 117.477 12.7018 117.711 13.6914 118.18C14.694 118.635 15.5404 119.306 16.2305 120.191C16.9336 121.064 17.487 122.118 17.8906 123.355C18.2943 124.592 18.5742 125.992 18.7305 127.555V129.352C18.5872 130.901 18.3073 132.294 17.8906 133.531C17.487 134.768 16.9336 135.823 16.2305 136.695C15.5404 137.568 14.694 138.238 13.6914 138.707C12.6888 139.163 11.5169 139.391 10.1758 139.391C8.9388 139.391 7.80599 139.124 6.77734 138.59C5.76172 138.056 4.88281 137.307 4.14062 136.344C3.41146 135.38 2.84505 134.247 2.44141 132.945C2.05078 131.63 1.85547 130.204 1.85547 128.668ZM5.48828 128.258V128.668C5.48828 129.723 5.59245 130.712 5.80078 131.637C6.02214 132.561 6.36068 133.375 6.81641 134.078C7.27214 134.781 7.85156 135.335 8.55469 135.738C9.25781 136.129 10.0977 136.324 11.0742 136.324C12.2721 136.324 13.2552 136.07 14.0234 135.562C14.8047 135.055 15.4297 134.384 15.8984 133.551C16.3672 132.717 16.7318 131.812 16.9922 130.836V126.129C16.8359 125.413 16.6081 124.723 16.3086 124.059C16.0221 123.382 15.6445 122.783 15.1758 122.262C14.7201 121.728 14.1536 121.305 13.4766 120.992C12.8125 120.68 12.0247 120.523 11.1133 120.523C10.1237 120.523 9.27083 120.732 8.55469 121.148C7.85156 121.552 7.27214 122.112 6.81641 122.828C6.36068 123.531 6.02214 124.352 5.80078 125.289C5.59245 126.214 5.48828 127.203 5.48828 128.258ZM24.375 128.668V128.219C24.375 126.695 24.5964 125.283 25.0391 123.98C25.4818 122.665 26.1198 121.526 26.9531 120.562C27.7865 119.586 28.7956 118.831 29.9805 118.297C31.1654 117.75 32.4935 117.477 33.9648 117.477C35.4492 117.477 36.7839 117.75 37.9688 118.297C39.1667 118.831 40.1823 119.586 41.0156 120.562C41.862 121.526 42.5065 122.665 42.9492 123.98C43.3919 125.283 43.6133 126.695 43.6133 128.219V128.668C43.6133 130.191 43.3919 131.604 42.9492 132.906C42.5065 134.208 41.862 135.348 41.0156 136.324C40.1823 137.288 39.1732 138.043 37.9883 138.59C36.8164 139.124 35.4883 139.391 34.0039 139.391C32.5195 139.391 31.1849 139.124 30 138.59C28.8151 138.043 27.7995 137.288 26.9531 136.324C26.1198 135.348 25.4818 134.208 25.0391 132.906C24.5964 131.604 24.375 130.191 24.375 128.668ZM27.9883 128.219V128.668C27.9883 129.723 28.112 130.719 28.3594 131.656C28.6068 132.581 28.9779 133.401 29.4727 134.117C29.9805 134.833 30.612 135.4 31.3672 135.816C32.1224 136.22 33.0013 136.422 34.0039 136.422C34.9935 136.422 35.8594 136.22 36.6016 135.816C37.3568 135.4 37.9818 134.833 38.4766 134.117C38.9714 133.401 39.3424 132.581 39.5898 131.656C39.8503 130.719 39.9805 129.723 39.9805 128.668V128.219C39.9805 127.177 39.8503 126.194 39.5898 125.27C39.3424 124.332 38.9648 123.505 38.457 122.789C37.9622 122.06 37.3372 121.487 36.582 121.07C35.8398 120.654 34.9674 120.445 33.9648 120.445C32.9753 120.445 32.1029 120.654 31.3477 121.07C30.6055 121.487 29.9805 122.06 29.4727 122.789C28.9779 123.505 28.6068 124.332 28.3594 125.27C28.112 126.194 27.9883 127.177 27.9883 128.219ZM51.7578 122.379V139H48.1445V117.867H51.5625L51.7578 122.379ZM50.8984 127.633L49.3945 127.574C49.4076 126.129 49.6224 124.794 50.0391 123.57C50.4557 122.333 51.0417 121.259 51.7969 120.348C52.5521 119.436 53.4505 118.733 54.4922 118.238C55.5469 117.73 56.7122 117.477 57.9883 117.477C59.0299 117.477 59.9674 117.62 60.8008 117.906C61.6341 118.18 62.3438 118.622 62.9297 119.234C63.5286 119.846 63.9844 120.641 64.2969 121.617C64.6094 122.581 64.7656 123.759 64.7656 125.152V139H61.1328V125.113C61.1328 124.007 60.9701 123.121 60.6445 122.457C60.319 121.78 59.8438 121.292 59.2188 120.992C58.5938 120.68 57.8255 120.523 56.9141 120.523C56.0156 120.523 55.1953 120.712 54.4531 121.09C53.724 121.467 53.0924 121.988 52.5586 122.652C52.0378 123.316 51.6276 124.078 51.3281 124.938C51.0417 125.784 50.8984 126.682 50.8984 127.633ZM70.4297 109V111.148L70.0195 118.336H67.5L67.5195 111.48V109H70.4297ZM84.0625 117.867V120.641H72.6367V117.867H84.0625ZM76.5039 112.73H80.1172V133.766C80.1172 134.482 80.2279 135.022 80.4492 135.387C80.6706 135.751 80.957 135.992 81.3086 136.109C81.6602 136.227 82.0378 136.285 82.4414 136.285C82.7409 136.285 83.0534 136.259 83.3789 136.207C83.7174 136.142 83.9714 136.09 84.1406 136.051L84.1602 139C83.8737 139.091 83.4961 139.176 83.0273 139.254C82.5716 139.345 82.0182 139.391 81.3672 139.391C80.4818 139.391 79.668 139.215 78.9258 138.863C78.1836 138.512 77.5911 137.926 77.1484 137.105C76.7188 136.272 76.5039 135.152 76.5039 133.746V112.73ZM101.836 109V139H98.2227V109H101.836ZM100.977 127.633L99.4727 127.574C99.4857 126.129 99.7005 124.794 100.117 123.57C100.534 122.333 101.12 121.259 101.875 120.348C102.63 119.436 103.529 118.733 104.57 118.238C105.625 117.73 106.79 117.477 108.066 117.477C109.108 117.477 110.046 117.62 110.879 117.906C111.712 118.18 112.422 118.622 113.008 119.234C113.607 119.846 114.062 120.641 114.375 121.617C114.688 122.581 114.844 123.759 114.844 125.152V139H111.211V125.113C111.211 124.007 111.048 123.121 110.723 122.457C110.397 121.78 109.922 121.292 109.297 120.992C108.672 120.68 107.904 120.523 106.992 120.523C106.094 120.523 105.273 120.712 104.531 121.09C103.802 121.467 103.171 121.988 102.637 122.652C102.116 123.316 101.706 124.078 101.406 124.938C101.12 125.784 100.977 126.682 100.977 127.633ZM132.715 135.387V124.508C132.715 123.674 132.546 122.952 132.207 122.34C131.882 121.715 131.387 121.233 130.723 120.895C130.059 120.556 129.238 120.387 128.262 120.387C127.35 120.387 126.549 120.543 125.859 120.855C125.182 121.168 124.648 121.578 124.258 122.086C123.88 122.594 123.691 123.141 123.691 123.727H120.078C120.078 122.971 120.273 122.223 120.664 121.48C121.055 120.738 121.615 120.068 122.344 119.469C123.086 118.857 123.971 118.375 125 118.023C126.042 117.659 127.201 117.477 128.477 117.477C130.013 117.477 131.367 117.737 132.539 118.258C133.724 118.779 134.648 119.566 135.312 120.621C135.99 121.663 136.328 122.971 136.328 124.547V134.391C136.328 135.094 136.387 135.842 136.504 136.637C136.634 137.431 136.823 138.115 137.07 138.688V139H133.301C133.118 138.583 132.975 138.03 132.871 137.34C132.767 136.637 132.715 135.986 132.715 135.387ZM133.34 126.188L133.379 128.727H129.727C128.698 128.727 127.78 128.811 126.973 128.98C126.165 129.137 125.488 129.378 124.941 129.703C124.395 130.029 123.978 130.439 123.691 130.934C123.405 131.415 123.262 131.982 123.262 132.633C123.262 133.297 123.411 133.902 123.711 134.449C124.01 134.996 124.46 135.432 125.059 135.758C125.671 136.07 126.419 136.227 127.305 136.227C128.411 136.227 129.388 135.992 130.234 135.523C131.081 135.055 131.751 134.482 132.246 133.805C132.754 133.128 133.027 132.47 133.066 131.832L134.609 133.57C134.518 134.117 134.271 134.723 133.867 135.387C133.464 136.051 132.923 136.689 132.246 137.301C131.582 137.9 130.788 138.401 129.863 138.805C128.952 139.195 127.923 139.391 126.777 139.391C125.345 139.391 124.089 139.111 123.008 138.551C121.94 137.991 121.107 137.242 120.508 136.305C119.922 135.354 119.629 134.293 119.629 133.121C119.629 131.988 119.85 130.992 120.293 130.133C120.736 129.26 121.374 128.538 122.207 127.965C123.04 127.379 124.043 126.936 125.215 126.637C126.387 126.337 127.695 126.188 129.141 126.188H133.34ZM148.125 135.738L153.906 117.867H157.598L150 139H147.578L148.125 135.738ZM143.301 117.867L149.258 135.836L149.668 139H147.246L139.59 117.867H143.301ZM169.57 139.391C168.099 139.391 166.764 139.143 165.566 138.648C164.382 138.141 163.359 137.431 162.5 136.52C161.654 135.608 161.003 134.527 160.547 133.277C160.091 132.027 159.863 130.66 159.863 129.176V128.355C159.863 126.637 160.117 125.107 160.625 123.766C161.133 122.411 161.823 121.266 162.695 120.328C163.568 119.391 164.557 118.681 165.664 118.199C166.771 117.717 167.917 117.477 169.102 117.477C170.612 117.477 171.914 117.737 173.008 118.258C174.115 118.779 175.02 119.508 175.723 120.445C176.426 121.37 176.947 122.464 177.285 123.727C177.624 124.977 177.793 126.344 177.793 127.828V129.449H162.012V126.5H174.18V126.227C174.128 125.289 173.932 124.378 173.594 123.492C173.268 122.607 172.747 121.878 172.031 121.305C171.315 120.732 170.339 120.445 169.102 120.445C168.281 120.445 167.526 120.621 166.836 120.973C166.146 121.311 165.553 121.819 165.059 122.496C164.564 123.173 164.18 124 163.906 124.977C163.633 125.953 163.496 127.079 163.496 128.355V129.176C163.496 130.178 163.633 131.122 163.906 132.008C164.193 132.88 164.603 133.648 165.137 134.312C165.684 134.977 166.341 135.497 167.109 135.875C167.891 136.253 168.776 136.441 169.766 136.441C171.042 136.441 172.122 136.181 173.008 135.66C173.893 135.139 174.668 134.443 175.332 133.57L177.52 135.309C177.064 135.999 176.484 136.656 175.781 137.281C175.078 137.906 174.212 138.414 173.184 138.805C172.168 139.195 170.964 139.391 169.57 139.391ZM204.395 135.387V124.508C204.395 123.674 204.225 122.952 203.887 122.34C203.561 121.715 203.066 121.233 202.402 120.895C201.738 120.556 200.918 120.387 199.941 120.387C199.03 120.387 198.229 120.543 197.539 120.855C196.862 121.168 196.328 121.578 195.938 122.086C195.56 122.594 195.371 123.141 195.371 123.727H191.758C191.758 122.971 191.953 122.223 192.344 121.48C192.734 120.738 193.294 120.068 194.023 119.469C194.766 118.857 195.651 118.375 196.68 118.023C197.721 117.659 198.88 117.477 200.156 117.477C201.693 117.477 203.047 117.737 204.219 118.258C205.404 118.779 206.328 119.566 206.992 120.621C207.669 121.663 208.008 122.971 208.008 124.547V134.391C208.008 135.094 208.066 135.842 208.184 136.637C208.314 137.431 208.503 138.115 208.75 138.688V139H204.98C204.798 138.583 204.655 138.03 204.551 137.34C204.447 136.637 204.395 135.986 204.395 135.387ZM205.02 126.188L205.059 128.727H201.406C200.378 128.727 199.46 128.811 198.652 128.98C197.845 129.137 197.168 129.378 196.621 129.703C196.074 130.029 195.658 130.439 195.371 130.934C195.085 131.415 194.941 131.982 194.941 132.633C194.941 133.297 195.091 133.902 195.391 134.449C195.69 134.996 196.139 135.432 196.738 135.758C197.35 136.07 198.099 136.227 198.984 136.227C200.091 136.227 201.068 135.992 201.914 135.523C202.76 135.055 203.431 134.482 203.926 133.805C204.434 133.128 204.707 132.47 204.746 131.832L206.289 133.57C206.198 134.117 205.951 134.723 205.547 135.387C205.143 136.051 204.603 136.689 203.926 137.301C203.262 137.9 202.467 138.401 201.543 138.805C200.632 139.195 199.603 139.391 198.457 139.391C197.025 139.391 195.768 139.111 194.688 138.551C193.62 137.991 192.786 137.242 192.188 136.305C191.602 135.354 191.309 134.293 191.309 133.121C191.309 131.988 191.53 130.992 191.973 130.133C192.415 129.26 193.053 128.538 193.887 127.965C194.72 127.379 195.723 126.936 196.895 126.637C198.066 126.337 199.375 126.188 200.82 126.188H205.02ZM217.305 122.379V139H213.691V117.867H217.109L217.305 122.379ZM216.445 127.633L214.941 127.574C214.954 126.129 215.169 124.794 215.586 123.57C216.003 122.333 216.589 121.259 217.344 120.348C218.099 119.436 218.997 118.733 220.039 118.238C221.094 117.73 222.259 117.477 223.535 117.477C224.577 117.477 225.514 117.62 226.348 117.906C227.181 118.18 227.891 118.622 228.477 119.234C229.076 119.846 229.531 120.641 229.844 121.617C230.156 122.581 230.312 123.759 230.312 125.152V139H226.68V125.113C226.68 124.007 226.517 123.121 226.191 122.457C225.866 121.78 225.391 121.292 224.766 120.992C224.141 120.68 223.372 120.523 222.461 120.523C221.562 120.523 220.742 120.712 220 121.09C219.271 121.467 218.639 121.988 218.105 122.652C217.585 123.316 217.174 124.078 216.875 124.938C216.589 125.784 216.445 126.682 216.445 127.633ZM6.36719 165.379V182H2.75391V160.867H6.17188L6.36719 165.379ZM5.50781 170.633L4.00391 170.574C4.01693 169.129 4.23177 167.794 4.64844 166.57C5.0651 165.333 5.65104 164.259 6.40625 163.348C7.16146 162.436 8.0599 161.733 9.10156 161.238C10.1562 160.73 11.3216 160.477 12.5977 160.477C13.6393 160.477 14.5768 160.62 15.4102 160.906C16.2435 161.18 16.9531 161.622 17.5391 162.234C18.138 162.846 18.5938 163.641 18.9062 164.617C19.2188 165.581 19.375 166.759 19.375 168.152V182H15.7422V168.113C15.7422 167.007 15.5794 166.121 15.2539 165.457C14.9284 164.78 14.4531 164.292 13.8281 163.992C13.2031 163.68 12.4349 163.523 11.5234 163.523C10.625 163.523 9.80469 163.712 9.0625 164.09C8.33333 164.467 7.70182 164.988 7.16797 165.652C6.64714 166.316 6.23698 167.078 5.9375 167.938C5.65104 168.784 5.50781 169.682 5.50781 170.633ZM31.2891 178.738L37.0703 160.867H40.7617L33.1641 182H30.7422L31.2891 178.738ZM26.4648 160.867L32.4219 178.836L32.832 182H30.4102L22.7539 160.867H26.4648ZM52.7344 182.391C51.263 182.391 49.9284 182.143 48.7305 181.648C47.5456 181.141 46.5234 180.431 45.6641 179.52C44.8177 178.608 44.1667 177.527 43.7109 176.277C43.2552 175.027 43.0273 173.66 43.0273 172.176V171.355C43.0273 169.637 43.2812 168.107 43.7891 166.766C44.2969 165.411 44.987 164.266 45.8594 163.328C46.7318 162.391 47.7214 161.681 48.8281 161.199C49.9349 160.717 51.0807 160.477 52.2656 160.477C53.776 160.477 55.0781 160.737 56.1719 161.258C57.2786 161.779 58.1836 162.508 58.8867 163.445C59.5898 164.37 60.1107 165.464 60.4492 166.727C60.7878 167.977 60.957 169.344 60.957 170.828V172.449H45.1758V169.5H57.3438V169.227C57.2917 168.289 57.0964 167.378 56.7578 166.492C56.4323 165.607 55.9115 164.878 55.1953 164.305C54.4792 163.732 53.5026 163.445 52.2656 163.445C51.4453 163.445 50.6901 163.621 50 163.973C49.3099 164.311 48.7174 164.819 48.2227 165.496C47.7279 166.173 47.3438 167 47.0703 167.977C46.7969 168.953 46.6602 170.079 46.6602 171.355V172.176C46.6602 173.178 46.7969 174.122 47.0703 175.008C47.3568 175.88 47.7669 176.648 48.3008 177.312C48.8477 177.977 49.5052 178.497 50.2734 178.875C51.0547 179.253 51.9401 179.441 52.9297 179.441C54.2057 179.441 55.2865 179.181 56.1719 178.66C57.0573 178.139 57.832 177.443 58.4961 176.57L60.6836 178.309C60.2279 178.999 59.6484 179.656 58.9453 180.281C58.2422 180.906 57.3763 181.414 56.3477 181.805C55.332 182.195 54.1276 182.391 52.7344 182.391ZM77.4805 176.395C77.4805 175.874 77.3633 175.392 77.1289 174.949C76.9076 174.493 76.4453 174.083 75.7422 173.719C75.0521 173.341 74.0104 173.016 72.6172 172.742C71.4453 172.495 70.3841 172.202 69.4336 171.863C68.4961 171.525 67.6953 171.115 67.0312 170.633C66.3802 170.151 65.8789 169.585 65.5273 168.934C65.1758 168.283 65 167.521 65 166.648C65 165.815 65.1823 165.027 65.5469 164.285C65.9245 163.543 66.4518 162.885 67.1289 162.312C67.819 161.74 68.6458 161.29 69.6094 160.965C70.5729 160.639 71.6471 160.477 72.832 160.477C74.5247 160.477 75.9701 160.776 77.168 161.375C78.3659 161.974 79.2839 162.775 79.9219 163.777C80.5599 164.767 80.8789 165.867 80.8789 167.078H77.2656C77.2656 166.492 77.0898 165.926 76.7383 165.379C76.3997 164.819 75.8984 164.357 75.2344 163.992C74.5833 163.628 73.7826 163.445 72.832 163.445C71.8294 163.445 71.0156 163.602 70.3906 163.914C69.7786 164.214 69.3294 164.598 69.043 165.066C68.7695 165.535 68.6328 166.03 68.6328 166.551C68.6328 166.941 68.6979 167.293 68.8281 167.605C68.9714 167.905 69.2188 168.185 69.5703 168.445C69.9219 168.693 70.4167 168.927 71.0547 169.148C71.6927 169.37 72.5065 169.591 73.4961 169.812C75.2279 170.203 76.6536 170.672 77.7734 171.219C78.8932 171.766 79.7266 172.436 80.2734 173.23C80.8203 174.025 81.0938 174.988 81.0938 176.121C81.0938 177.046 80.8984 177.892 80.5078 178.66C80.1302 179.428 79.5768 180.092 78.8477 180.652C78.1315 181.199 77.2721 181.629 76.2695 181.941C75.2799 182.241 74.1667 182.391 72.9297 182.391C71.0677 182.391 69.4922 182.059 68.2031 181.395C66.9141 180.73 65.9375 179.871 65.2734 178.816C64.6094 177.762 64.2773 176.648 64.2773 175.477H67.9102C67.9622 176.466 68.2487 177.254 68.7695 177.84C69.2904 178.413 69.9284 178.823 70.6836 179.07C71.4388 179.305 72.1875 179.422 72.9297 179.422C73.9193 179.422 74.7461 179.292 75.4102 179.031C76.0872 178.771 76.6016 178.413 76.9531 177.957C77.3047 177.501 77.4805 176.98 77.4805 176.395ZM94.6875 160.867V163.641H83.2617V160.867H94.6875ZM87.1289 155.73H90.7422V176.766C90.7422 177.482 90.8529 178.022 91.0742 178.387C91.2956 178.751 91.582 178.992 91.9336 179.109C92.2852 179.227 92.6628 179.285 93.0664 179.285C93.3659 179.285 93.6784 179.259 94.0039 179.207C94.3424 179.142 94.5964 179.09 94.7656 179.051L94.7852 182C94.4987 182.091 94.1211 182.176 93.6523 182.254C93.1966 182.345 92.6432 182.391 91.9922 182.391C91.1068 182.391 90.293 182.215 89.5508 181.863C88.8086 181.512 88.2161 180.926 87.7734 180.105C87.3438 179.272 87.1289 178.152 87.1289 176.746V155.73ZM102.52 165.066V182H98.8867V160.867H102.324L102.52 165.066ZM101.777 170.633L100.098 170.574C100.111 169.129 100.299 167.794 100.664 166.57C101.029 165.333 101.569 164.259 102.285 163.348C103.001 162.436 103.893 161.733 104.961 161.238C106.029 160.73 107.266 160.477 108.672 160.477C109.661 160.477 110.573 160.62 111.406 160.906C112.24 161.18 112.962 161.616 113.574 162.215C114.186 162.814 114.661 163.582 115 164.52C115.339 165.457 115.508 166.59 115.508 167.918V182H111.895V168.094C111.895 166.987 111.706 166.102 111.328 165.438C110.964 164.773 110.443 164.292 109.766 163.992C109.089 163.68 108.294 163.523 107.383 163.523C106.315 163.523 105.423 163.712 104.707 164.09C103.991 164.467 103.418 164.988 102.988 165.652C102.559 166.316 102.246 167.078 102.051 167.938C101.868 168.784 101.777 169.682 101.777 170.633ZM115.469 168.641L113.047 169.383C113.06 168.224 113.249 167.111 113.613 166.043C113.991 164.975 114.531 164.025 115.234 163.191C115.951 162.358 116.829 161.701 117.871 161.219C118.913 160.724 120.104 160.477 121.445 160.477C122.578 160.477 123.581 160.626 124.453 160.926C125.339 161.225 126.081 161.688 126.68 162.312C127.292 162.924 127.754 163.712 128.066 164.676C128.379 165.639 128.535 166.785 128.535 168.113V182H124.902V168.074C124.902 166.889 124.714 165.971 124.336 165.32C123.971 164.656 123.451 164.194 122.773 163.934C122.109 163.66 121.315 163.523 120.391 163.523C119.596 163.523 118.893 163.66 118.281 163.934C117.669 164.207 117.155 164.585 116.738 165.066C116.322 165.535 116.003 166.076 115.781 166.688C115.573 167.299 115.469 167.951 115.469 168.641ZM142.773 182.391C141.302 182.391 139.967 182.143 138.77 181.648C137.585 181.141 136.562 180.431 135.703 179.52C134.857 178.608 134.206 177.527 133.75 176.277C133.294 175.027 133.066 173.66 133.066 172.176V171.355C133.066 169.637 133.32 168.107 133.828 166.766C134.336 165.411 135.026 164.266 135.898 163.328C136.771 162.391 137.76 161.681 138.867 161.199C139.974 160.717 141.12 160.477 142.305 160.477C143.815 160.477 145.117 160.737 146.211 161.258C147.318 161.779 148.223 162.508 148.926 163.445C149.629 164.37 150.15 165.464 150.488 166.727C150.827 167.977 150.996 169.344 150.996 170.828V172.449H135.215V169.5H147.383V169.227C147.331 168.289 147.135 167.378 146.797 166.492C146.471 165.607 145.951 164.878 145.234 164.305C144.518 163.732 143.542 163.445 142.305 163.445C141.484 163.445 140.729 163.621 140.039 163.973C139.349 164.311 138.757 164.819 138.262 165.496C137.767 166.173 137.383 167 137.109 167.977C136.836 168.953 136.699 170.079 136.699 171.355V172.176C136.699 173.178 136.836 174.122 137.109 175.008C137.396 175.88 137.806 176.648 138.34 177.312C138.887 177.977 139.544 178.497 140.312 178.875C141.094 179.253 141.979 179.441 142.969 179.441C144.245 179.441 145.326 179.181 146.211 178.66C147.096 178.139 147.871 177.443 148.535 176.57L150.723 178.309C150.267 178.999 149.688 179.656 148.984 180.281C148.281 180.906 147.415 181.414 146.387 181.805C145.371 182.195 144.167 182.391 142.773 182.391ZM158.828 165.379V182H155.215V160.867H158.633L158.828 165.379ZM157.969 170.633L156.465 170.574C156.478 169.129 156.693 167.794 157.109 166.57C157.526 165.333 158.112 164.259 158.867 163.348C159.622 162.436 160.521 161.733 161.562 161.238C162.617 160.73 163.783 160.477 165.059 160.477C166.1 160.477 167.038 160.62 167.871 160.906C168.704 161.18 169.414 161.622 170 162.234C170.599 162.846 171.055 163.641 171.367 164.617C171.68 165.581 171.836 166.759 171.836 168.152V182H168.203V168.113C168.203 167.007 168.04 166.121 167.715 165.457C167.389 164.78 166.914 164.292 166.289 163.992C165.664 163.68 164.896 163.523 163.984 163.523C163.086 163.523 162.266 163.712 161.523 164.09C160.794 164.467 160.163 164.988 159.629 165.652C159.108 166.316 158.698 167.078 158.398 167.938C158.112 168.784 157.969 169.682 157.969 170.633ZM186.172 160.867V163.641H174.746V160.867H186.172ZM178.613 155.73H182.227V176.766C182.227 177.482 182.337 178.022 182.559 178.387C182.78 178.751 183.066 178.992 183.418 179.109C183.77 179.227 184.147 179.285 184.551 179.285C184.85 179.285 185.163 179.259 185.488 179.207C185.827 179.142 186.081 179.09 186.25 179.051L186.27 182C185.983 182.091 185.605 182.176 185.137 182.254C184.681 182.345 184.128 182.391 183.477 182.391C182.591 182.391 181.777 182.215 181.035 181.863C180.293 181.512 179.701 180.926 179.258 180.105C178.828 179.272 178.613 178.152 178.613 176.746V155.73ZM6.36719 207.93V233.125H2.73438V203.867H6.05469L6.36719 207.93ZM20.6055 214.258V214.668C20.6055 216.204 20.4232 217.63 20.0586 218.945C19.694 220.247 19.1602 221.38 18.457 222.344C17.7669 223.307 16.9141 224.056 15.8984 224.59C14.8828 225.124 13.7174 225.391 12.4023 225.391C11.0612 225.391 9.8763 225.169 8.84766 224.727C7.81901 224.284 6.94661 223.639 6.23047 222.793C5.51432 221.947 4.94141 220.931 4.51172 219.746C4.09505 218.561 3.80859 217.227 3.65234 215.742V213.555C3.80859 211.992 4.10156 210.592 4.53125 209.355C4.96094 208.118 5.52734 207.064 6.23047 206.191C6.94661 205.306 7.8125 204.635 8.82812 204.18C9.84375 203.711 11.0156 203.477 12.3438 203.477C13.6719 203.477 14.8503 203.737 15.8789 204.258C16.9076 204.766 17.7734 205.495 18.4766 206.445C19.1797 207.396 19.707 208.535 20.0586 209.863C20.4232 211.178 20.6055 212.643 20.6055 214.258ZM16.9727 214.668V214.258C16.9727 213.203 16.862 212.214 16.6406 211.289C16.4193 210.352 16.0742 209.531 15.6055 208.828C15.1497 208.112 14.5638 207.552 13.8477 207.148C13.1315 206.732 12.2786 206.523 11.2891 206.523C10.3776 206.523 9.58333 206.68 8.90625 206.992C8.24219 207.305 7.67578 207.728 7.20703 208.262C6.73828 208.783 6.35417 209.382 6.05469 210.059C5.76823 210.723 5.55339 211.413 5.41016 212.129V217.188C5.67057 218.099 6.03516 218.958 6.50391 219.766C6.97266 220.56 7.59766 221.204 8.37891 221.699C9.16016 222.181 10.1432 222.422 11.3281 222.422C12.3047 222.422 13.1445 222.22 13.8477 221.816C14.5638 221.4 15.1497 220.833 15.6055 220.117C16.0742 219.401 16.4193 218.581 16.6406 217.656C16.862 216.719 16.9727 215.723 16.9727 214.668ZM24.2578 214.668V214.219C24.2578 212.695 24.4792 211.283 24.9219 209.98C25.3646 208.665 26.0026 207.526 26.8359 206.562C27.6693 205.586 28.6784 204.831 29.8633 204.297C31.0482 203.75 32.3763 203.477 33.8477 203.477C35.332 203.477 36.6667 203.75 37.8516 204.297C39.0495 204.831 40.0651 205.586 40.8984 206.562C41.7448 207.526 42.3893 208.665 42.832 209.98C43.2747 211.283 43.4961 212.695 43.4961 214.219V214.668C43.4961 216.191 43.2747 217.604 42.832 218.906C42.3893 220.208 41.7448 221.348 40.8984 222.324C40.0651 223.288 39.056 224.043 37.8711 224.59C36.6992 225.124 35.3711 225.391 33.8867 225.391C32.4023 225.391 31.0677 225.124 29.8828 224.59C28.6979 224.043 27.6823 223.288 26.8359 222.324C26.0026 221.348 25.3646 220.208 24.9219 218.906C24.4792 217.604 24.2578 216.191 24.2578 214.668ZM27.8711 214.219V214.668C27.8711 215.723 27.9948 216.719 28.2422 217.656C28.4896 218.581 28.8607 219.401 29.3555 220.117C29.8633 220.833 30.4948 221.4 31.25 221.816C32.0052 222.22 32.8841 222.422 33.8867 222.422C34.8763 222.422 35.7422 222.22 36.4844 221.816C37.2396 221.4 37.8646 220.833 38.3594 220.117C38.8542 219.401 39.2253 218.581 39.4727 217.656C39.7331 216.719 39.8633 215.723 39.8633 214.668V214.219C39.8633 213.177 39.7331 212.194 39.4727 211.27C39.2253 210.332 38.8477 209.505 38.3398 208.789C37.8451 208.06 37.2201 207.487 36.4648 207.07C35.7227 206.654 34.8503 206.445 33.8477 206.445C32.8581 206.445 31.9857 206.654 31.2305 207.07C30.4883 207.487 29.8633 208.06 29.3555 208.789C28.8607 209.505 28.4896 210.332 28.2422 211.27C27.9948 212.194 27.8711 213.177 27.8711 214.219ZM51.6406 207.188V225H48.0273V203.867H51.543L51.6406 207.188ZM58.2422 203.75L58.2227 207.109C57.9232 207.044 57.6367 207.005 57.3633 206.992C57.1029 206.966 56.8034 206.953 56.4648 206.953C55.6315 206.953 54.8958 207.083 54.2578 207.344C53.6198 207.604 53.0794 207.969 52.6367 208.438C52.194 208.906 51.8424 209.466 51.582 210.117C51.3346 210.755 51.1719 211.458 51.0938 212.227L50.0781 212.812C50.0781 211.536 50.2018 210.339 50.4492 209.219C50.7096 208.099 51.1068 207.109 51.6406 206.25C52.1745 205.378 52.8516 204.701 53.6719 204.219C54.5052 203.724 55.4948 203.477 56.6406 203.477C56.901 203.477 57.2005 203.509 57.5391 203.574C57.8776 203.626 58.112 203.685 58.2422 203.75ZM71.4062 203.867V206.641H59.9805V203.867H71.4062ZM63.8477 198.73H67.4609V219.766C67.4609 220.482 67.5716 221.022 67.793 221.387C68.0143 221.751 68.3008 221.992 68.6523 222.109C69.0039 222.227 69.3815 222.285 69.7852 222.285C70.0846 222.285 70.3971 222.259 70.7227 222.207C71.0612 222.142 71.3151 222.09 71.4844 222.051L71.5039 225C71.2174 225.091 70.8398 225.176 70.3711 225.254C69.9154 225.345 69.362 225.391 68.7109 225.391C67.8255 225.391 67.0117 225.215 66.2695 224.863C65.5273 224.512 64.9349 223.926 64.4922 223.105C64.0625 222.272 63.8477 221.152 63.8477 219.746V198.73ZM81.0352 225H77.4219V201.641C77.4219 200.117 77.6953 198.835 78.2422 197.793C78.8021 196.738 79.6029 195.944 80.6445 195.41C81.6862 194.863 82.9232 194.59 84.3555 194.59C84.7721 194.59 85.1888 194.616 85.6055 194.668C86.0352 194.72 86.4518 194.798 86.8555 194.902L86.6602 197.852C86.3867 197.786 86.0742 197.741 85.7227 197.715C85.3841 197.689 85.0456 197.676 84.707 197.676C83.9388 197.676 83.2747 197.832 82.7148 198.145C82.168 198.444 81.7513 198.887 81.4648 199.473C81.1784 200.059 81.0352 200.781 81.0352 201.641V225ZM85.5273 203.867V206.641H74.082V203.867H85.5273ZM88.5938 214.668V214.219C88.5938 212.695 88.8151 211.283 89.2578 209.98C89.7005 208.665 90.3385 207.526 91.1719 206.562C92.0052 205.586 93.0143 204.831 94.1992 204.297C95.3841 203.75 96.7122 203.477 98.1836 203.477C99.668 203.477 101.003 203.75 102.188 204.297C103.385 204.831 104.401 205.586 105.234 206.562C106.081 207.526 106.725 208.665 107.168 209.98C107.611 211.283 107.832 212.695 107.832 214.219V214.668C107.832 216.191 107.611 217.604 107.168 218.906C106.725 220.208 106.081 221.348 105.234 222.324C104.401 223.288 103.392 224.043 102.207 224.59C101.035 225.124 99.707 225.391 98.2227 225.391C96.7383 225.391 95.4036 225.124 94.2188 224.59C93.0339 224.043 92.0182 223.288 91.1719 222.324C90.3385 221.348 89.7005 220.208 89.2578 218.906C88.8151 217.604 88.5938 216.191 88.5938 214.668ZM92.207 214.219V214.668C92.207 215.723 92.3307 216.719 92.5781 217.656C92.8255 218.581 93.1966 219.401 93.6914 220.117C94.1992 220.833 94.8307 221.4 95.5859 221.816C96.3411 222.22 97.2201 222.422 98.2227 222.422C99.2122 222.422 100.078 222.22 100.82 221.816C101.576 221.4 102.201 220.833 102.695 220.117C103.19 219.401 103.561 218.581 103.809 217.656C104.069 216.719 104.199 215.723 104.199 214.668V214.219C104.199 213.177 104.069 212.194 103.809 211.27C103.561 210.332 103.184 209.505 102.676 208.789C102.181 208.06 101.556 207.487 100.801 207.07C100.059 206.654 99.1862 206.445 98.1836 206.445C97.194 206.445 96.3216 206.654 95.5664 207.07C94.8242 207.487 94.1992 208.06 93.6914 208.789C93.1966 209.505 92.8255 210.332 92.5781 211.27C92.3307 212.194 92.207 213.177 92.207 214.219ZM116.289 195V225H112.656V195H116.289ZM126.016 203.867V225H122.383V203.867H126.016ZM122.109 198.262C122.109 197.676 122.285 197.181 122.637 196.777C123.001 196.374 123.535 196.172 124.238 196.172C124.928 196.172 125.456 196.374 125.82 196.777C126.198 197.181 126.387 197.676 126.387 198.262C126.387 198.822 126.198 199.303 125.82 199.707C125.456 200.098 124.928 200.293 124.238 200.293C123.535 200.293 123.001 200.098 122.637 199.707C122.285 199.303 122.109 198.822 122.109 198.262ZM130.859 214.668V214.219C130.859 212.695 131.081 211.283 131.523 209.98C131.966 208.665 132.604 207.526 133.438 206.562C134.271 205.586 135.28 204.831 136.465 204.297C137.65 203.75 138.978 203.477 140.449 203.477C141.934 203.477 143.268 203.75 144.453 204.297C145.651 204.831 146.667 205.586 147.5 206.562C148.346 207.526 148.991 208.665 149.434 209.98C149.876 211.283 150.098 212.695 150.098 214.219V214.668C150.098 216.191 149.876 217.604 149.434 218.906C148.991 220.208 148.346 221.348 147.5 222.324C146.667 223.288 145.658 224.043 144.473 224.59C143.301 225.124 141.973 225.391 140.488 225.391C139.004 225.391 137.669 225.124 136.484 224.59C135.299 224.043 134.284 223.288 133.438 222.324C132.604 221.348 131.966 220.208 131.523 218.906C131.081 217.604 130.859 216.191 130.859 214.668ZM134.473 214.219V214.668C134.473 215.723 134.596 216.719 134.844 217.656C135.091 218.581 135.462 219.401 135.957 220.117C136.465 220.833 137.096 221.4 137.852 221.816C138.607 222.22 139.486 222.422 140.488 222.422C141.478 222.422 142.344 222.22 143.086 221.816C143.841 221.4 144.466 220.833 144.961 220.117C145.456 219.401 145.827 218.581 146.074 217.656C146.335 216.719 146.465 215.723 146.465 214.668V214.219C146.465 213.177 146.335 212.194 146.074 211.27C145.827 210.332 145.449 209.505 144.941 208.789C144.447 208.06 143.822 207.487 143.066 207.07C142.324 206.654 141.452 206.445 140.449 206.445C139.46 206.445 138.587 206.654 137.832 207.07C137.09 207.487 136.465 208.06 135.957 208.789C135.462 209.505 135.091 210.332 134.844 211.27C134.596 212.194 134.473 213.177 134.473 214.219Z" fill="#A4A4A4"/>
<defs>
<clipPath id="clip0_287_522">
<rect width="717" height="286" fill="white" transform="translate(7 16)"/>
</clipPath>
</defs>
</svg>
