<svg width="36" height="36" viewBox="0 0 36 36" fill="none" xmlns="http://www.w3.org/2000/svg">
<path d="M30.375 19.1243C29.6773 19.1253 28.9971 19.3421 28.4275 19.7449C27.8578 20.1477 27.4268 20.7169 27.1934 21.3743H24.4357L22.4423 15.3935C22.3663 15.1656 22.2194 14.9681 22.023 14.8297C21.8266 14.6914 21.591 14.6196 21.3509 14.6248C21.1107 14.63 20.8785 14.7119 20.6882 14.8586C20.498 15.0053 20.3597 15.209 20.2936 15.4399L17.164 26.3918L13.4845 4.31368C13.4419 4.05877 13.3127 3.82632 13.1188 3.65543C12.9249 3.48454 12.6781 3.38561 12.4199 3.3753C12.1616 3.36499 11.9077 3.44391 11.7008 3.5988C11.4939 3.75368 11.3466 3.97509 11.2837 4.22579L6.9968 21.3743H3.375C3.07663 21.3743 2.79048 21.4928 2.5795 21.7038C2.36853 21.9148 2.25 22.2009 2.25 22.4993C2.25 22.7977 2.36853 23.0838 2.5795 23.2948C2.79048 23.5058 3.07663 23.6243 3.375 23.6243H7.875C8.12587 23.6243 8.36953 23.5404 8.56725 23.386C8.76497 23.2316 8.90541 23.0155 8.96625 22.7721L12.1542 10.0195L15.7655 31.6842C15.8071 31.9365 15.9334 32.167 16.1236 32.3379C16.3137 32.5088 16.5565 32.6098 16.8117 32.6243C16.8328 32.6243 16.8539 32.6243 16.8757 32.6243C17.12 32.6241 17.3575 32.5444 17.5525 32.3973C17.7475 32.2501 17.8892 32.0435 17.9564 31.8087L21.458 19.5546L22.5577 22.8551C22.6323 23.0791 22.7756 23.2739 22.9672 23.412C23.1587 23.55 23.3889 23.6243 23.625 23.6243H27.1934C27.3996 24.2077 27.7623 24.7231 28.2417 25.1143C28.7211 25.5055 29.2989 25.7573 29.9117 25.8423C30.5246 25.9273 31.1491 25.8422 31.7169 25.5962C32.2847 25.3503 32.7739 24.953 33.1311 24.4477C33.4883 23.9425 33.6998 23.3488 33.7423 22.7315C33.7849 22.1142 33.657 21.4971 33.3725 20.9476C33.088 20.3981 32.6579 19.9374 32.1293 19.6158C31.6006 19.2943 30.9938 19.1242 30.375 19.1243Z" fill="#1778F2"/>
</svg>
