<svg width="34" height="33" viewBox="0 0 34 33" fill="none" xmlns="http://www.w3.org/2000/svg">
<path d="M32.9375 11.6956C32.9363 10.6499 32.4881 9.64729 31.6913 8.90785C30.8946 8.1684 29.8143 7.75248 28.6875 7.75134H25.5V6.76528C25.4991 5.98097 25.163 5.22902 24.5654 4.67443C23.9679 4.11984 23.1576 3.80791 22.3125 3.8071H11.6875C10.8424 3.80791 10.0321 4.11984 9.43457 4.67443C8.83699 5.22902 8.50088 5.98097 8.5 6.76528V7.75134H5.3125C4.18571 7.75248 3.10542 8.1684 2.30866 8.90785C1.51189 9.64729 1.06373 10.6499 1.0625 11.6956V14.6538H32.9375V11.6956ZM23.375 7.75134H10.625V6.76528C10.625 6.50376 10.7369 6.25295 10.9362 6.06803C11.1355 5.88311 11.4057 5.77922 11.6875 5.77922H22.3125C22.5943 5.77922 22.8645 5.88311 23.0638 6.06803C23.2631 6.25295 23.375 6.50376 23.375 6.76528V7.75134Z" fill="white"/>
<path d="M22.3125 17.1189C22.3125 17.5112 22.1446 17.8874 21.8457 18.1648C21.5468 18.4422 21.1414 18.598 20.7188 18.598H13.2812C12.8586 18.598 12.4532 18.4422 12.1543 18.1648C11.8554 17.8874 11.6875 17.5112 11.6875 17.1189V16.8724C11.6875 16.807 11.6595 16.7443 11.6097 16.6981C11.5599 16.6519 11.4923 16.6259 11.4219 16.6259H1.0625V25.5004C1.0625 26.5465 1.51027 27.5497 2.3073 28.2894C3.10433 29.0291 4.18533 29.4447 5.3125 29.4447H28.6875C29.8147 29.4447 30.8957 29.0291 31.6927 28.2894C32.4897 27.5497 32.9375 26.5465 32.9375 25.5004V16.6259H22.5781C22.5077 16.6259 22.4401 16.6519 22.3903 16.6981C22.3405 16.7443 22.3125 16.807 22.3125 16.8724V17.1189Z" fill="white"/>
</svg>
