<svg width="34" height="35" viewBox="0 0 34 35" fill="none" xmlns="http://www.w3.org/2000/svg">
<g clip-path="url(#clip0_254_525)">
<path d="M4.16425 22.8715C3.13975 23.6309 2.05931 23.7642 0.919993 23.2073C0.382717 22.945 0.0367997 22.5309 0 21.9362C0.232574 21.825 0.355483 21.8587 0.420987 22.0901C0.525498 22.4629 0.779414 22.7252 1.16434 22.8914C1.26296 22.053 1.6317 21.6726 2.31176 21.6863C2.96017 21.7 3.30609 22.0791 3.3841 22.8639C3.80951 22.7266 4.12451 22.3901 4.1201 22.0248C4.06858 18.3168 6.06607 15.6951 9.24924 13.7457C11.5558 12.3325 14.1385 11.6527 16.88 11.4948C19.3238 11.3375 21.7747 11.6847 24.0582 12.5118C24.3276 12.6093 24.463 12.5008 24.6374 12.3689C26.5002 10.964 28.5801 10.6076 30.8573 11.2778C31.8877 11.5806 31.8759 11.6054 31.4306 12.5035C30.8691 13.6351 30.3333 14.7777 29.7747 15.9107C29.6738 16.1167 29.7077 16.2541 29.8431 16.4395C30.1706 16.8803 30.4783 17.3363 30.7668 17.8005C30.8816 17.9865 31.0104 18.0559 31.2327 18.0525C31.9196 18.0438 32.6065 18.0438 33.2934 18.0525C33.8005 18.058 33.9956 18.2289 33.9963 18.6938C34.0022 20.8454 34.0022 22.9969 33.9963 25.1485C33.9963 25.6209 33.8005 25.7912 33.3001 25.7946C32.5273 25.8001 31.7545 25.8042 30.9817 25.7946C30.73 25.7905 30.6026 25.8914 30.4503 26.0693C29.8092 26.8315 29.1513 27.58 28.4675 28.3113C28.2799 28.5111 28.1871 28.6827 28.2173 28.9444C28.3645 30.2065 28.494 31.4699 28.6294 32.7334C28.6442 32.8707 28.6574 33.0081 28.664 33.1454C28.6839 33.567 28.5706 33.7236 28.1319 33.8472C27.5807 34.0023 27.0279 34.1534 26.4715 34.2956C26.024 34.4095 25.8128 34.3189 25.6001 33.9378C25.0849 33.0142 24.5697 32.0914 24.0648 31.1623C23.9537 30.9563 23.844 30.9206 23.6063 30.9954C19.7121 32.2273 15.829 32.1957 11.9658 30.8718C11.7303 30.7908 11.6236 30.8265 11.5117 31.0339C10.9965 31.9835 10.4673 32.9257 9.94181 33.8698C9.67612 34.3505 9.50022 34.4192 8.93424 34.2695C8.4264 34.1362 7.92004 33.9989 7.41514 33.8575C6.9132 33.716 6.79765 33.5732 6.84622 33.0829C6.99342 31.5688 7.16711 30.0554 7.31284 28.5399C7.32756 28.3909 7.28193 28.1835 7.17668 28.0853C5.64802 26.6653 4.61395 25.0008 4.22902 23.004C4.21148 22.9582 4.18981 22.9139 4.16425 22.8715ZM18.1246 12.9492C15.9843 12.9794 13.9626 13.3955 12.0011 14.1C11.7413 14.1934 11.6589 14.3294 11.7605 14.5738C11.9077 14.9254 12.0401 15.2818 12.1807 15.6354C12.4015 16.1971 12.4067 16.2012 13.0264 15.9849C14.4248 15.4974 15.8622 15.1719 17.3511 15.0813C19.2447 14.964 21.1402 15.2826 22.871 16.0089C23.423 16.2369 23.426 16.2321 23.6711 15.702C23.8212 15.377 23.9706 15.0513 24.1193 14.7249C24.2915 14.3465 24.2665 14.2943 23.8712 14.1261C22.0644 13.3648 20.1071 12.964 18.1246 12.9492ZM2.26686 22.075C1.88708 22.0784 1.59416 22.3222 1.60446 22.6243C1.61477 22.9264 1.92904 23.1695 2.29262 23.1613C2.65621 23.153 2.96312 22.9017 2.95502 22.6009C2.94692 22.3002 2.65252 22.0708 2.26686 22.075Z" fill="#2E4E5D"/>
<path d="M20.5416 8.82779C20.5416 10.164 19.4376 11.2174 18.0282 11.2236C17.6842 11.2291 17.3424 11.1702 17.0232 11.0505C16.7039 10.9308 16.4136 10.7526 16.1694 10.5265C15.9252 10.3003 15.732 10.0308 15.6012 9.73389C15.4705 9.43695 15.4048 9.11858 15.4081 8.79757C15.4147 7.46887 16.5687 6.46291 18.0444 6.4272C19.261 6.39974 20.6292 7.4469 20.5416 8.82779Z" fill="#2E4E5D"/>
<path d="M22.9116 4.95705C22.8659 3.7698 24.0472 2.51732 25.5678 2.5805C26.2413 2.5999 26.8796 2.86627 27.344 3.32183C27.8085 3.77739 28.0617 4.38542 28.0488 5.01404C28.0487 5.32608 27.9824 5.63501 27.8537 5.92303C27.7251 6.21105 27.5365 6.47245 27.2991 6.69217C27.0616 6.91188 26.7798 7.08557 26.4701 7.2032C26.1603 7.32083 25.8286 7.38008 25.4942 7.37755C25.1532 7.38032 24.8151 7.31952 24.4996 7.19872C24.1842 7.07792 23.8977 6.89956 23.6572 6.6741C23.4166 6.44863 23.2267 6.18061 23.0987 5.88575C22.9707 5.5909 22.907 5.27515 22.9116 4.95705Z" fill="#2E4E5D"/>
<path d="M16.4332 1.47633C16.4332 0.647525 17.1199 -0.00343507 17.9854 -1.74021e-06C18.4077 0.0037987 18.8113 0.162971 19.1084 0.442903C19.4056 0.722835 19.5723 1.10089 19.5723 1.49487C19.5656 2.28454 18.8635 2.96022 18.0406 2.96846C17.1162 2.97807 16.431 2.34153 16.4332 1.47633Z" fill="#2E4E5D"/>
</g>
<defs>
<clipPath id="clip0_254_525">
<rect width="34" height="34.3381" fill="white"/>
</clipPath>
</defs>
</svg>
