<svg width="31" height="31" viewBox="0 0 31 31" fill="none" xmlns="http://www.w3.org/2000/svg">
<path d="M14.4667 0.033905C6.38803 0.565644 0 7.28682 0 15.5C0 24.0604 6.93959 31 15.5 31C19.4083 31 22.9788 29.5535 25.7053 27.1666L14.7776 16.2389C14.581 16.0467 14.4667 15.7812 14.4667 15.5V0.033905Z" fill="#F17046"/>
<path d="M27.1666 25.7052C29.5535 22.9788 31 19.4083 31 15.5C31 13.375 30.5724 11.3499 29.7985 9.50605L17.2445 15.7831L27.1666 25.7052Z" fill="#F17046"/>
<path d="M28.8729 7.65826C26.3441 3.35512 21.7977 0.380405 16.5333 0.033905V13.828L28.8729 7.65826Z" fill="#F17046"/>
</svg>
