<svg width="32" height="32" viewBox="0 0 32 32" fill="none" xmlns="http://www.w3.org/2000/svg">
<rect width="32" height="32" fill="white"/>
<path fill-rule="evenodd" clip-rule="evenodd" d="M2.66675 24.6667C2.66675 24.2985 2.96522 24 3.33341 24H28.6667C29.0349 24 29.3334 24.2985 29.3334 24.6667V28.6667C29.3334 29.0349 29.0349 29.3333 28.6667 29.3333H3.33341C2.96522 29.3333 2.66675 29.0349 2.66675 28.6667V24.6667ZM4.00008 25.3333V28H28.0001V25.3333H4.00008Z" fill="#25C348" stroke="#25C348" stroke-miterlimit="10" stroke-linecap="round" stroke-linejoin="round"/>
<path fill-rule="evenodd" clip-rule="evenodd" d="M15.6896 2.74339C15.8839 2.64109 16.1162 2.64109 16.3106 2.74339L28.9772 9.41005C29.1963 9.52533 29.3334 9.75248 29.3334 10V12.6667C29.3334 13.0349 29.0349 13.3333 28.6667 13.3333H3.33341C2.96522 13.3333 2.66675 13.0349 2.66675 12.6667V10C2.66675 9.75248 2.80388 9.52533 3.02292 9.41005L15.6896 2.74339ZM4.00008 10.4025V12H28.0001V10.4025L16.0001 4.0867L4.00008 10.4025Z" fill="#25C348" stroke="#25C348" stroke-miterlimit="10" stroke-linecap="round" stroke-linejoin="round"/>
<path fill-rule="evenodd" clip-rule="evenodd" d="M12.6666 12C13.0348 12 13.3333 12.2985 13.3333 12.6667L13.3333 24.6667C13.3333 25.0349 13.0348 25.3333 12.6666 25.3333H5.99992C5.63173 25.3333 5.33325 25.0349 5.33325 24.6667L5.33325 12.6667C5.33325 12.2985 5.63173 12 5.99992 12L12.6666 12ZM11.9999 13.3333L6.66659 13.3333L6.66659 24H11.9999L11.9999 13.3333Z" fill="#25C348" stroke="#25C348" stroke-miterlimit="10" stroke-linecap="round" stroke-linejoin="round"/>
<path fill-rule="evenodd" clip-rule="evenodd" d="M26.0001 12C26.3683 12 26.6667 12.2985 26.6667 12.6667L26.6667 24.6667C26.6667 25.0349 26.3683 25.3333 26.0001 25.3333H19.3334C18.9652 25.3333 18.6667 25.0349 18.6667 24.6667V12.6667C18.6667 12.2985 18.9652 12 19.3334 12L26.0001 12ZM25.3334 13.3333L20.0001 13.3333V24H25.3334L25.3334 13.3333Z" fill="#25C348" stroke="#25C348" stroke-miterlimit="10" stroke-linecap="round" stroke-linejoin="round"/>
</svg>
