<svg width="22" height="23" viewBox="0 0 22 23" fill="none" xmlns="http://www.w3.org/2000/svg">
<path fill-rule="evenodd" clip-rule="evenodd" d="M4.0435 8C4.99153 3.98662 8.59699 1 12.9 1C15.9453 1 18.6411 2.49655 20.2918 4.79122L19.1553 5.60878C17.7563 3.66406 15.4758 2.4 12.9 2.4C9.37542 2.4 6.40395 4.76809 5.48985 8H10.8V9.4H5.23139C5.21061 9.63055 5.2 9.86404 5.2 10.1V12.9C5.2 13.136 5.21061 13.3694 5.23139 13.6H10.8V15H5.48985C6.40395 18.2319 9.37542 20.6 12.9 20.6C15.4758 20.6 17.7563 19.3359 19.1553 17.3912L20.2918 18.2088C18.6411 20.5035 15.9453 22 12.9 22C8.59699 22 4.99153 19.0134 4.0435 15H1V13.6H3.82652C3.80895 13.369 3.8 13.1355 3.8 12.9V10.1C3.8 9.86447 3.80895 9.63103 3.82652 9.4H1V8H4.0435Z" fill="#474EDC" stroke="#474EDC" stroke-width="2"/>
</svg>
