<svg width="21" height="21" viewBox="0 0 21 21" fill="none" xmlns="http://www.w3.org/2000/svg">
<path fill-rule="evenodd" clip-rule="evenodd" d="M1.25275 20.6445C1.47743 20.8707 1.78264 20.9985 2.10145 21C2.26992 20.9944 2.43594 20.9581 2.5913 20.8927L5.75442 19.7498L5.79427 19.7344C5.88032 19.6982 5.97281 19.6799 6.06614 19.6805C6.1522 19.6807 6.23749 19.6966 6.31786 19.7273C6.32356 19.7295 6.33271 19.7329 6.34507 19.7376C6.49748 19.7949 7.13791 20.036 7.81083 20.2242C8.41552 20.3948 9.67505 20.6461 10.6594 20.6461C13.4555 20.6461 16.0665 19.5652 18.0108 17.5964C19.9383 15.6469 20.9996 13.0523 20.9996 10.29C20.9998 9.58093 20.9247 8.87383 20.7755 8.18063C20.2908 5.89875 19.0055 3.82453 17.1563 2.33625C15.2647 0.822805 12.9141 -0.00119424 10.4916 2.65636e-06C7.63598 2.65636e-06 4.9688 1.10016 2.97473 3.09797C1.0477 5.03297 -0.00839056 7.58344 4.69394e-05 10.283C-0.000162815 12.2627 0.580901 14.1988 1.67114 15.8513L1.68005 15.8639C1.68729 15.8745 1.69495 15.8853 1.7025 15.8958C1.70863 15.9044 1.71468 15.9129 1.72036 15.9211C1.7252 15.9281 1.7308 15.936 1.73607 15.9435C1.74459 15.9556 1.75226 15.9666 1.75458 15.9703L1.76489 15.9891C1.81786 16.0809 1.85864 16.1972 1.82255 16.3125L0.959109 19.4358C0.924567 19.552 0.905651 19.6723 0.902859 19.7934C0.902235 20.1123 1.02806 20.4183 1.25275 20.6445ZM9.374 11.362C9.15933 11.6793 9.052 12.0807 9.052 12.566H11.166C11.166 12.2673 11.2453 12.0153 11.404 11.81C11.5627 11.5953 11.8147 11.334 12.16 11.026C12.4493 10.7647 12.6827 10.536 12.86 10.34C13.0467 10.1347 13.2007 9.88733 13.322 9.598C13.4527 9.30867 13.518 8.97267 13.518 8.59C13.518 7.778 13.1913 7.14333 12.538 6.686C11.894 6.22867 11.0353 6 9.962 6C9.04733 6 8.254 6.16333 7.582 6.49C6.91933 6.81667 6.392 7.27867 6 7.876L7.694 8.87C7.92733 8.54333 8.212 8.29133 8.548 8.114C8.89333 7.92733 9.28533 7.834 9.724 7.834C10.1813 7.834 10.5453 7.93667 10.816 8.142C11.096 8.338 11.236 8.60867 11.236 8.954C11.236 9.19667 11.1613 9.416 11.012 9.612C10.872 9.79867 10.648 10.032 10.34 10.312C9.92 10.6947 9.598 11.0447 9.374 11.362ZM9.15 15.716C9.41133 15.9587 9.73333 16.08 10.116 16.08C10.4987 16.08 10.816 15.9587 11.068 15.716C11.3293 15.464 11.46 15.1607 11.46 14.806C11.46 14.4513 11.334 14.1573 11.082 13.924C10.83 13.6813 10.508 13.56 10.116 13.56C9.724 13.56 9.402 13.6813 9.15 13.924C8.898 14.1573 8.772 14.4513 8.772 14.806C8.772 15.1607 8.898 15.464 9.15 15.716Z" fill="#A4A4A4"/>
</svg>
