<svg width="37" height="35" viewBox="0 0 37 35" fill="none" xmlns="http://www.w3.org/2000/svg">
<path d="M27.1719 10.8673H19.6562V21.1534L23.4639 17.6203C23.6825 17.4275 23.9736 17.3217 24.2751 17.3253C24.5766 17.3288 24.8647 17.4416 25.0779 17.6395C25.2911 17.8373 25.4126 18.1047 25.4165 18.3845C25.4203 18.6643 25.3063 18.9345 25.0986 19.1373L19.3173 24.5027C19.1005 24.7037 18.8065 24.8167 18.5 24.8167C18.1935 24.8167 17.8995 24.7037 17.6827 24.5027L11.9014 19.1373C11.6937 18.9345 11.5797 18.6643 11.5835 18.3845C11.5874 18.1047 11.7089 17.8373 11.9221 17.6395C12.1353 17.4416 12.4234 17.3288 12.7249 17.3253C13.0264 17.3217 13.3175 17.4275 13.5361 17.6203L17.3438 21.1534V10.8673H9.82812C8.75518 10.8684 7.72651 11.2644 6.96782 11.9685C6.20913 12.6727 5.7824 13.6273 5.78125 14.6231V28.5729C5.7824 29.5687 6.20913 30.5234 6.96782 31.2275C7.72651 31.9316 8.75518 32.3276 9.82812 32.3287H27.1719C28.2448 32.3276 29.2735 31.9316 30.0322 31.2275C30.7909 30.5234 31.2176 29.5687 31.2188 28.5729V14.6231C31.2176 13.6273 30.7909 12.6727 30.0322 11.9685C29.2735 11.2644 28.2448 10.8684 27.1719 10.8673Z" fill="#E2A843"/>
<path d="M19.6562 3.35587C19.6562 3.07128 19.5344 2.79834 19.3176 2.5971C19.1008 2.39586 18.8067 2.28281 18.5 2.28281C18.1933 2.28281 17.8992 2.39586 17.6824 2.5971C17.4656 2.79834 17.3438 3.07128 17.3438 3.35587V10.8673H19.6562V3.35587Z" fill="#E2A843"/>
</svg>
