<svg width="24" height="24" viewBox="0 0 24 24" fill="none" xmlns="http://www.w3.org/2000/svg">
<g clip-path="url(#clip0_15_449)">
<path d="M35.6667 24H-0.333333C-1.04058 24 -1.71885 23.7963 -2.21895 23.4337C-2.71905 23.0712 -3 22.5794 -3 22.0667V-4.03333C-3 -4.28971 -2.85952 -4.53558 -2.60948 -4.71687C-2.35943 -4.89816 -2.02029 -5 -1.66667 -5C-1.31304 -5 -0.973906 -4.89816 -0.723857 -4.71687C-0.473809 -4.53558 -0.333333 -4.28971 -0.333333 -4.03333V22.0667H35.6667C36.0203 22.0667 36.3594 22.1685 36.6095 22.3498C36.8595 22.5311 37 22.777 37 23.0333C37 23.2897 36.8595 23.5356 36.6095 23.7169C36.3594 23.8982 36.0203 24 35.6667 24Z" fill="#A4A4A4"/>
<path d="M7.3125 19.25H5.4375C4.98995 19.25 4.56073 19.0722 4.24426 18.7557C3.92779 18.4393 3.75 18.0101 3.75 17.5625V10.4375C3.75 9.98995 3.92779 9.56073 4.24426 9.24426C4.56073 8.92779 4.98995 8.75 5.4375 8.75H7.3125C7.76005 8.75 8.18927 8.92779 8.50574 9.24426C8.82221 9.56073 9 9.98995 9 10.4375V17.5625C9 18.0101 8.82221 18.4393 8.50574 18.7557C8.18927 19.0722 7.76005 19.25 7.3125 19.25Z" fill="#A4A4A4"/>
<path d="M14.0625 19.25H12.1875C11.7399 19.25 11.3107 19.0722 10.9943 18.7557C10.6778 18.4393 10.5 18.0101 10.5 17.5625V8.1875C10.5 7.73995 10.6778 7.31073 10.9943 6.99426C11.3107 6.67779 11.7399 6.5 12.1875 6.5H14.0625C14.5101 6.5 14.9393 6.67779 15.2557 6.99426C15.5722 7.31073 15.75 7.73995 15.75 8.1875V17.5625C15.75 18.0101 15.5722 18.4393 15.2557 18.7557C14.9393 19.0722 14.5101 19.25 14.0625 19.25Z" fill="#A4A4A4"/>
<path d="M20.7955 19.25H18.9205C18.473 19.25 18.0438 19.0722 17.7273 18.7557C17.4108 18.4393 17.233 18.0101 17.233 17.5625V5.1875C17.233 4.73995 17.4108 4.31073 17.7273 3.99426C18.0438 3.67779 18.473 3.5 18.9205 3.5H20.7955C21.2431 3.5 21.6723 3.67779 21.9888 3.99426C22.3052 4.31073 22.483 4.73995 22.483 5.1875V17.5625C22.483 18.0101 22.3052 18.4393 21.9888 18.7557C21.6723 19.0722 21.2431 19.25 20.7955 19.25Z" fill="#A4A4A4"/>
</g>
<defs>
<clipPath id="clip0_15_449">
<rect width="24" height="24" fill="white"/>
</clipPath>
</defs>
</svg>
