<svg width="30" height="30" viewBox="0 0 30 30" fill="none" xmlns="http://www.w3.org/2000/svg">
<path d="M19.6875 15C18.4829 15 17.318 14.4621 16.4063 13.4859C15.5198 12.5338 14.9784 11.2641 14.8829 9.91172C14.7809 8.46914 15.2209 7.14258 16.1215 6.17578C17.0221 5.20898 18.2813 4.6875 19.6875 4.6875C21.0838 4.6875 22.3465 5.21836 23.2442 6.18281C24.1506 7.15664 24.5918 8.48086 24.4899 9.91113C24.392 11.2652 23.8512 12.5344 22.9665 13.4854C22.0571 14.4621 20.8928 15 19.6875 15Z" fill="#E2A843"/>
<path d="M27.4119 25.3125H11.9637C11.7153 25.3138 11.47 25.2582 11.2465 25.1498C11.023 25.0414 10.8274 24.8832 10.6746 24.6873C10.5126 24.475 10.4007 24.2287 10.3474 23.9671C10.294 23.7054 10.3005 23.435 10.3664 23.1762C10.8598 21.1951 12.082 19.5521 13.9008 18.4254C15.5151 17.4258 17.5699 16.875 19.6875 16.875C21.8467 16.875 23.8477 17.4023 25.4713 18.4014C27.2942 19.5223 28.5182 21.1746 29.0092 23.1797C29.0743 23.4387 29.0801 23.7091 29.0261 23.9706C28.9722 24.2322 28.8598 24.4782 28.6975 24.6902C28.5449 24.8852 28.3497 25.0426 28.1269 25.1505C27.9041 25.2584 27.6595 25.3138 27.4119 25.3125Z" fill="#E2A843"/>
<path d="M8.61329 15.2344C6.55137 15.2344 4.73848 13.3172 4.57032 10.9611C4.48711 9.7541 4.86329 8.63789 5.62501 7.81934C6.37852 7.00898 7.44141 6.5625 8.61329 6.5625C9.78516 6.5625 10.8398 7.01133 11.5975 7.82637C12.365 8.65137 12.74 9.76523 12.6522 10.9623C12.484 13.3178 10.6717 15.2344 8.61329 15.2344Z" fill="#E2A843"/>
<path d="M12.4605 17.0762C11.4298 16.5723 10.0921 16.3203 8.6138 16.3203C6.88763 16.3203 5.21126 16.7703 3.8929 17.5871C2.39818 18.5147 1.39271 19.8652 0.986652 21.4959C0.927229 21.7305 0.921609 21.9754 0.970212 22.2124C1.01881 22.4495 1.12038 22.6724 1.26732 22.8647C1.40674 23.0437 1.58535 23.1883 1.78943 23.2874C1.9935 23.3866 2.21759 23.4376 2.44446 23.4365H8.94837C9.05815 23.4365 9.16443 23.398 9.2487 23.3276C9.33297 23.2573 9.38988 23.1596 9.4095 23.0516C9.41595 23.0147 9.42415 22.9778 9.43353 22.9414C9.9304 20.9457 11.0947 19.2594 12.815 18.0301C12.8782 17.9845 12.9291 17.9238 12.963 17.8535C12.9969 17.7833 13.0128 17.7057 13.0091 17.6278C13.0054 17.5499 12.9824 17.4741 12.942 17.4074C12.9017 17.3406 12.8453 17.285 12.7781 17.2455C12.6861 17.1916 12.5806 17.1348 12.4605 17.0762Z" fill="#E2A843"/>
</svg>
