<svg width="27" height="27" viewBox="0 0 27 27" fill="none" xmlns="http://www.w3.org/2000/svg">
<path d="M17.7188 19.8281V14.3438H10.0723C9.84849 14.3438 9.63388 14.2549 9.47564 14.0966C9.31741 13.9384 9.22852 13.7238 9.22852 13.5C9.22852 13.2762 9.31741 13.0616 9.47564 12.9034C9.63388 12.7451 9.84849 12.6562 10.0723 12.6562H17.7188V7.17188C17.7179 6.38891 17.4065 5.63826 16.8529 5.08463C16.2992 4.53099 15.5486 4.21959 14.7656 4.21875H4.64062C3.85766 4.21959 3.10701 4.53099 2.55338 5.08463C1.99974 5.63826 1.68834 6.38891 1.6875 7.17188V19.8281C1.68834 20.6111 1.99974 21.3617 2.55338 21.9154C3.10701 22.469 3.85766 22.7804 4.64062 22.7812H14.7656C15.5486 22.7804 16.2992 22.469 16.8529 21.9154C17.4065 21.3617 17.7179 20.6111 17.7188 19.8281Z" fill="#E2A843"/>
<path d="M22.4316 14.3433L19.6536 17.1219C19.502 17.2814 19.4188 17.4938 19.4216 17.7139C19.4244 17.9339 19.5131 18.1441 19.6687 18.2997C19.8242 18.4553 20.0345 18.5439 20.2545 18.5467C20.4745 18.5495 20.6869 18.4663 20.8464 18.3147L25.0652 14.096C25.2233 13.9378 25.3121 13.7233 25.3121 13.4996C25.3121 13.2759 25.2233 13.0614 25.0652 12.9032L20.8464 8.68441C20.6869 8.53286 20.4745 8.44961 20.2545 8.45243C20.0345 8.45525 19.8242 8.5439 19.6687 8.69949C19.5131 8.85508 19.4244 9.06529 19.4216 9.28531C19.4188 9.50533 19.502 9.71774 19.6536 9.87726L22.4316 12.6558H17.7188V14.3433H22.4316Z" fill="#E2A843"/>
</svg>
