<svg width="31" height="31" viewBox="0 0 31 31" fill="none" xmlns="http://www.w3.org/2000/svg">
<path fill-rule="evenodd" clip-rule="evenodd" d="M3.87508 27.125V2.58334H1.29175V28.4167C1.29175 29.1301 1.87005 29.7083 2.58341 29.7083H28.4167V27.125H3.87508Z" fill="#A91D4C"/>
<path fill-rule="evenodd" clip-rule="evenodd" d="M29.3302 8.66336L21.5802 16.4134C21.0758 16.9178 20.2579 16.9178 19.7535 16.4134L18.0835 14.7434L12.5385 20.2884C12.0341 20.7928 11.2163 20.7928 10.7118 20.2884L7.75018 17.3267L3.49686 21.58L1.67017 19.7533L6.83683 14.5867C7.34126 14.0822 8.1591 14.0822 8.66353 14.5867L11.6252 17.5483L17.1702 12.0033C17.6746 11.4989 18.4924 11.4989 18.9969 12.0033L20.6668 13.6733L27.5035 6.83667L29.3302 8.66336Z" fill="#A91D4C"/>
</svg>
