<svg width="21" height="17" viewBox="0 0 21 17" fill="none" xmlns="http://www.w3.org/2000/svg">
<path fill-rule="evenodd" clip-rule="evenodd" d="M0 2.72024C0 1.21789 1.21789 0 2.72024 0H16.0494C16.5001 0 16.8655 0.365368 16.8655 0.816072C16.8655 1.26678 16.5001 1.63214 16.0494 1.63214H5.21413L5.21413 1.63215H2.72024C2.26953 1.63215 1.90417 1.99752 1.90417 2.44822C1.90417 2.89893 2.26953 3.26429 2.72024 3.26429H17.4095L17.4126 3.26429H19.9583C20.2027 3.26429 20.4018 3.4616 20.4018 3.70471V8.16071H16.0494C14.8475 8.16071 13.8732 9.13502 13.8732 10.3369C13.8732 11.5388 14.8475 12.5131 16.0494 12.5131H20.4018V15.596C20.4018 16.3245 19.8048 16.9173 19.0713 16.9173H1.33057C0.596988 16.9173 1.34768e-05 16.3245 1.34768e-05 15.596V6.35588L0 6.34722V2.72024Z" fill="#A4A4A4"/>
<circle cx="16.3214" cy="10.3369" r="1.0881" fill="#A4A4A4"/>
</svg>
