<svg width="57" height="56" viewBox="0 0 57 56" fill="none" xmlns="http://www.w3.org/2000/svg">
<g filter="url(#filter0_d_275_520)">
<rect x="6" y="2" width="45.3093" height="45" rx="8" fill="url(#paint0_linear_275_520)"/>
</g>
<path fill-rule="evenodd" clip-rule="evenodd" d="M23 13C21.067 13 19.5 14.567 19.5 16.5C19.5 18.433 21.067 20 23 20C24.933 20 26.5 18.433 26.5 16.5C26.5 14.567 24.933 13 23 13Z" fill="white"/>
<path fill-rule="evenodd" clip-rule="evenodd" d="M23 20.5C21.067 20.5 19.5 22.067 19.5 24C19.5 25.933 21.067 27.5 23 27.5C24.933 27.5 26.5 25.933 26.5 24C26.5 22.067 24.933 20.5 23 20.5Z" fill="white"/>
<path fill-rule="evenodd" clip-rule="evenodd" d="M23 28C21.067 28 19.5 29.567 19.5 31.5C19.5 33.433 21.067 35 23 35C24.933 35 26.5 33.433 26.5 31.5C26.5 29.567 24.933 28 23 28Z" fill="white"/>
<path fill-rule="evenodd" clip-rule="evenodd" d="M37.5 17.5H28.5V15.5H37.5V17.5Z" fill="white"/>
<path fill-rule="evenodd" clip-rule="evenodd" d="M37.5 25H28.5V23H37.5V25Z" fill="white"/>
<path fill-rule="evenodd" clip-rule="evenodd" d="M37.5 32.5H28.5V30.5H37.5V32.5Z" fill="white"/>
<defs>
<filter id="filter0_d_275_520" x="0.5" y="-2.38419e-07" width="56.3093" height="56" filterUnits="userSpaceOnUse" color-interpolation-filters="sRGB">
<feFlood flood-opacity="0" result="BackgroundImageFix"/>
<feColorMatrix in="SourceAlpha" type="matrix" values="0 0 0 0 0 0 0 0 0 0 0 0 0 0 0 0 0 0 127 0" result="hardAlpha"/>
<feOffset dy="3.5"/>
<feGaussianBlur stdDeviation="2.75"/>
<feColorMatrix type="matrix" values="0 0 0 0 0 0 0 0 0 0 0 0 0 0 0 0 0 0 0.02 0"/>
<feBlend mode="normal" in2="BackgroundImageFix" result="effect1_dropShadow_275_520"/>
<feBlend mode="normal" in="SourceGraphic" in2="effect1_dropShadow_275_520" result="shape"/>
</filter>
<linearGradient id="paint0_linear_275_520" x1="51.3093" y1="23.3157" x2="7.00369" y2="23.3157" gradientUnits="userSpaceOnUse">
<stop stop-color="#A91D4C"/>
<stop offset="1" stop-color="#EDCA8B"/>
</linearGradient>
</defs>
</svg>
